<?xml version="1.0"?><svg width="679" height="488" xmlns="http://www.w3.org/2000/svg">

 <metadata id="metadata7459">image/svg+xml</metadata>
 <g>
  <title>Layer 1</title>
  <g id="svg_4">
   <path fill="#a86c00" stroke-width="0.706576" d="m652.988953,164.593124c25.918274,109.287949 -93.444946,231.173691 -266.606018,272.239029c-173.160675,41.065369 -334.546341,-14.239807 -360.464645,-123.527771c-25.918289,-109.287933 93.444885,-231.17366 266.606033,-272.239029c173.160522,-41.065353 334.546295,14.239822 360.46463,123.527771z" id="path5176-6"/>
   <path fill="#a46800" d="m660.083557,192.009293c-0.369995,7.564606 -1.128967,15.033661 -2.313538,22.431854l7.852966,33.113037l-2.05011,9.333786l-8.386719,-29.310837c-0.676697,2.891678 -1.41394,5.769363 -2.235413,8.642639l8.290344,34.954971l-2.906494,7.213409l-8.795837,-31.474579c-1.13092,3.191803 -2.353088,6.375366 -3.684143,9.55069l7.646301,32.240936l-4.227417,7.080505l-7.592773,-30.087616c-1.490173,3.075928 -3.067383,6.149658 -4.762451,9.215698l7.27478,30.670044l-4.197021,6.246033l-7.521545,-29.259216c-1.843018,3.01416 -3.788025,6.029114 -5.843201,9.038879l6.844788,28.860504l-4.466187,5.115265l-7.074585,-27.375244c-1.9552,2.656647 -3.984375,5.318207 -6.115601,7.974854l6.581421,27.751984l-4.936096,5.148224l-6.63678,-26.846405c-2.012024,2.358154 -4.090515,4.713013 -6.247253,7.073639l6.382202,27.536713l-4.872375,4.450531l-6.575439,-26.585266c-2.410339,2.51001 -4.888611,5.018616 -7.469299,7.534393l6.425903,27.092987l-5.157166,4.741302l-6.564697,-26.797821c-1.749939,1.636292 -3.538513,3.281616 -5.362976,4.921173c-0.889404,0.798492 -1.781555,1.592316 -2.681213,2.3815l6.619995,27.727814l-5.202332,3.937866l-6.739197,-27.095459c-2.913452,2.449036 -5.866516,4.858276 -8.873535,7.224121l6.519958,27.491669l-5.25354,3.280487l-6.645203,-26.621765c-2.748169,2.078888 -5.521667,4.128693 -8.339722,6.139221l6.460449,27.243164l-5.525879,3.187408l-6.482239,-26.542145c-3.433289,2.35788 -6.914612,4.667419 -10.44104,6.926178l6.274231,27.172058l-5.709229,2.850494l-6.231384,-26.460327c-3.470642,2.142609 -6.980652,4.24292 -10.529968,6.291077l6.306824,26.594879l-5.963318,2.831818l-6.195129,-26.122314c-3.763336,2.09317 -7.559662,4.139954 -11.39975,6.129883l6.182465,26.072357l-6.045166,2.483887l-6.056854,-25.537964c-4.516815,2.255981 -9.083496,4.440338 -13.691071,6.554657l6.247284,26.343903l-5.977783,2.244751l-6.191803,-25.923767c-4.742523,2.098389 -9.521851,4.129791 -14.344025,6.07962l6.189056,26.097595l-6.14621,2.061615l-6.107117,-25.749695c-4.636536,1.804016 -9.294342,3.540527 -13.989807,5.207825l6.162018,25.981445l-6.282135,2.014648l-6.068115,-25.845825c-4.677734,1.593994 -9.374268,3.131409 -14.094971,4.589752l6.063446,25.571198l-6.329651,1.724152l-5.964722,-25.410583c-4.580536,1.3526 -9.177002,2.647552 -13.786896,3.873596l6.116425,25.78952l-6.281189,1.489624l-6.087036,-25.66568c-78.158539,19.760132 -159.304855,21.278595 -223.200775,3.404053c-70.169678,-19.629669 -106.086868,-47.300385 -135.642899,-90.032501c2.793915,11.78418 11.620468,26.370544 18.234863,37.249146c9.814163,14.928497 40.120834,55.887024 107.154953,77.60495c71.663162,23.217743 159.547302,20.989471 241.023804,1.323517c60.631897,-14.634674 144.198975,-44.599548 208.94928,-113.982269c45.82959,-49.108032 54.617065,-74.934326 56.752808,-103.729492c-1.518616,-17.744644 -3.983032,-39.510635 -8.048828,-56.651474l-0.011719,0.002747z" id="path5178-9"/>
   <path fill="#f0dc5c" fill-rule="nonzero" stroke="#000000" stroke-width="2.833194" stroke-miterlimit="4" stroke-dashoffset="0" d="m649.024597,165.285904c25.49884,107.519882 -92.329285,227.527451 -263.177399,268.044449c-170.847946,40.516724 -330.018311,-13.799927 -355.517242,-121.31955c-25.499481,-107.519867 92.329292,-227.527435 263.176819,-268.044159c170.847961,-40.516998 330.01825,13.799652 355.517822,121.31926z" id="path5180-7"/>
   <path fill="#b07400" id="path5252-0" d="m423.89978,401.577606c-2.152496,0.090637 -7.037933,-1.230957 -9.366852,-2.5336c-1.127319,-0.630463 -3.094604,-1.589874 -4.370758,-2.131622c-1.2771,-0.542023 -3.573883,-1.514069 -5.104156,-2.160187c-1.529724,-0.646637 -4.940369,-1.65741 -7.578339,-2.246948c-2.63797,-0.589264 -6.183838,-1.475891 -7.879822,-1.969879c-1.695984,-0.493713 -4.080231,-1.047272 -5.298309,-1.229065c-3.935516,-0.58844 -13.101807,-3.580597 -16.058014,-5.242126c-2.663086,-1.496796 -9.717346,-4.380219 -14.511505,-5.931915c-1.115662,-0.361084 -4.04538,-1.6091 -6.511169,-2.773621c-4.887787,-2.308441 -13.196259,-4.818451 -15.39444,-4.650665c-0.760071,0.057922 -2.520172,-0.178223 -3.910828,-0.525848c-1.391205,-0.347351 -3.308228,-0.771576 -4.261322,-0.943207c-0.952271,-0.171631 -2.750549,-0.844086 -3.99646,-1.494293c-1.245941,-0.650238 -4.452576,-2.185181 -7.126373,-3.411194c-2.673401,-1.225769 -4.770538,-2.378754 -4.65976,-2.56192c0.11026,-0.182861 -0.002319,-0.334442 -0.251801,-0.335815c-0.560822,-0.003571 -5.107452,-2.036072 -9.522278,-4.256653c-1.830536,-0.920959 -4.819824,-2.160187 -6.642792,-2.754395c-1.82312,-0.594208 -4.706299,-1.57309 -6.406403,-2.175812c-2.954987,-1.046722 -3.204437,-1.06897 -5.612854,-0.497833c-2.69342,0.638702 -2.848419,0.624969 -9.436737,-0.861389c-4.382263,-0.98877 -7.247864,-1.750763 -6.895966,-1.833954c0.266602,-0.063446 -3.057281,-1.110992 -8.392776,-2.645386c-5.005997,-1.439667 -7.355362,-2.31366 -10.644928,-3.95871c-1.791412,-0.895721 -3.814972,-1.846619 -4.498154,-2.11322c-0.682343,-0.266357 -2.709625,-1.215057 -4.504333,-2.107758c-4.861694,-2.418549 -7.047272,-2.979248 -11.062286,-2.838409c-7.320496,0.25647 -9.459946,-0.254517 -17.023865,-4.065247c-1.462875,-0.737 -2.846512,-1.378723 -3.074966,-1.426208c-0.229004,-0.047241 -1.029572,-0.40036 -1.780289,-0.78476c-0.750168,-0.38443 -3.518433,-1.34494 -6.150757,-2.134369c-8.495178,-2.546814 -6.744827,-2.504242 -16.337952,-0.397888c-8.146454,1.788666 -8.488998,1.890808 -10.776031,3.215424c-1.298935,0.75235 -3.257431,1.747742 -4.352631,2.211792c-1.094635,0.46405 -2.58345,1.447906 -3.30809,2.186005c-1.133759,1.154907 -1.641068,1.410828 -3.636765,1.835052c-3.230789,0.686462 -4.055099,0.663116 -4.613068,-0.131256c-0.603271,-0.858917 0.038162,-2.699463 1.066635,-3.135223c10.136658,-4.230316 9.39624,-3.884613 14.188614,-6.621124c3.698547,-2.112122 4.951492,-3.239868 8.790222,-7.914154c4.267365,-5.195465 6.559479,-6.472046 7.150528,-3.980988c0.533386,2.250244 4.363327,4.325592 8.708405,4.719604c2.190109,0.198547 6.387726,0.900116 8.944672,1.495148c3.834076,0.891846 6.199371,1.412201 8.586899,1.88916c1.548401,0.309174 3.41243,1.017883 4.186768,1.591492c0.768021,0.568665 4.102615,1.858154 7.410294,2.865601c3.307678,1.007446 7.789215,2.374084 9.95845,3.036926c2.16925,0.662872 5.047882,1.452026 6.396652,1.75351c1.349182,0.301788 4.00856,1.119781 5.911179,1.817505c1.902069,0.697998 5.313126,1.662354 7.580124,2.142883c5.494217,1.16507 13.070633,3.324707 23.917526,6.817993c1.711761,0.551392 5.269867,1.551971 7.90686,2.223328c5.679016,1.445709 22.26532,7.138733 27.950806,9.593536c2.205627,0.952545 5.776215,2.350189 7.934753,3.10614c2.158661,0.756226 5.691071,2.110748 7.850159,3.010315c9.876495,4.11441 20.089508,7.981415 26.569885,10.060303c10.440521,3.349426 16.254486,5.320679 27.648193,9.373322c5.637573,2.005035 12.742096,4.311035 15.788239,5.124359c6.853149,1.829559 15.322235,4.707245 19.581635,6.653534c3.095551,1.414673 5.27182,1.903961 6.827209,1.535492c0.402954,-0.095856 1.715485,-1.151367 2.915833,-2.3461c1.648499,-1.639557 2.359131,-2.127228 2.898956,-1.990204c0.977814,0.247955 1.599213,3.773926 0.917389,5.203156c-0.293671,0.610962 -0.692078,1.444885 -0.889374,1.852936c-0.198395,0.408295 -0.814575,1.736755 -1.370728,2.952637c-1.068573,2.335083 -1.679108,2.732117 -4.373505,2.845795l0.000549,0zm4.483734,-15.401855c-0.475586,-0.00769 -0.966125,-1.625275 -1.969208,-6.486847c-2.104004,-10.199005 -4.23233,-16.205322 -7.167267,-20.223633c-1.34137,-1.837555 -3.095428,-4.294006 -3.896942,-5.458801c-2.531281,-3.679749 -2.891541,-4.152863 -3.418884,-4.487854c-1.807617,-1.147491 -6.585571,-3.250031 -10.871063,-4.7836c-2.746002,-0.982727 -5.651947,-2.124207 -6.457184,-2.536896c-0.804688,-0.41217 -9.455292,-3.457886 -19.223297,-6.767487c-9.767639,-3.309601 -19.834412,-6.851501 -22.370911,-7.870483c-4.987885,-2.004211 -8.860535,-3.313995 -12.722992,-4.302521c-2.532257,-0.64801 -10.285095,-3.003998 -18.509399,-5.624908c-2.585388,-0.823761 -6.588867,-1.858978 -8.895935,-2.300232c-2.307922,-0.441254 -7.654114,-2.014099 -11.880585,-3.495209c-4.225891,-1.480591 -9.578156,-3.251678 -11.893585,-3.935394c-2.314911,-0.683441 -5.601196,-1.667297 -7.302795,-2.186005c-4.688049,-1.429199 -9.505951,-2.461395 -17.73587,-3.799164c-4.10672,-0.667542 -8.294601,-1.394104 -9.304535,-1.614319c-1.010345,-0.22049 -1.972351,-0.368774 -2.137115,-0.329498c-0.259201,0.061249 -16.921021,-2.028931 -22.397949,-2.81012c-1.059357,-0.151581 -3.074966,-0.38031 -4.478653,-0.509094c-1.403275,-0.129059 -3.826233,-0.426971 -5.383423,-0.662018c-1.557312,-0.235321 -5.100876,-0.602997 -7.874756,-0.817719c-4.209686,-0.325409 -7.161774,-0.780945 -11.097717,-1.712067c-1.501434,-0.355316 -7.415497,-0.930023 -8.041016,-0.781738c-0.827469,0.19632 -3.2323,2.513306 -4.111389,3.960907c-0.331848,0.546722 -0.719559,1.664001 -0.861526,2.482544c-0.140991,0.818817 -0.807419,2.367493 -1.479477,3.441681c-1.446518,2.311218 -3.413391,6.718597 -3.269501,7.325989c0.137283,0.573059 -1.019272,1.539612 -1.723038,1.442139c-0.993591,-0.138123 -0.81813,-1.659058 0.663269,-5.749847c0.213623,-0.593109 0.407623,-1.82135 0.429031,-2.729675c0.16394,-6.928406 1.552658,-11.132599 4.501587,-13.621735c1.479065,-1.248535 1.781937,-1.380341 2.953461,-1.285065c0.718048,0.058197 2.10788,0.022797 3.088425,-0.078552c0.980682,-0.101868 3.007965,-0.051331 4.506119,0.112335c1.497726,0.163635 4.145859,0.193573 5.884262,0.066437c1.738693,-0.127136 4.906738,-0.056305 7.039734,0.157623c2.133545,0.213623 4.709991,0.425323 5.725006,0.470093c3.895157,0.172424 13.22467,1.122772 14.482285,1.475067c0.485474,0.1362 1.143112,0.185638 1.460388,0.110107c0.316605,-0.0755 1.746796,0.085693 3.175064,0.357239c1.428818,0.271851 3.672195,0.569489 4.985535,0.661224c1.313904,0.09198 2.892502,0.310822 3.50827,0.486298c0.615768,0.175171 3.917816,0.730927 7.338211,1.234802c7.71138,1.135406 8.919144,1.419067 17.064224,4.008148c3.609314,1.147491 7.690918,2.389191 9.070435,2.759613c1.379944,0.370422 4.174683,1.262268 6.211456,1.981415c2.036072,0.719696 5.675171,1.704102 8.086029,2.187927c2.411285,0.483521 6.144867,1.358368 8.297363,1.944061c4.237152,1.15271 12.105316,2.888397 12.581848,2.775269c0.350922,-0.082672 4.397797,1.12442 12.9534,3.862335c3.440308,1.101105 8.012024,2.477325 10.159027,3.058624c2.1474,0.581024 5.485291,1.620605 7.417297,2.309845c7.817902,2.789246 10.364166,3.646515 27.844116,9.376587c10.007751,3.280762 18.364655,5.934662 18.570892,5.897583c0.205658,-0.038147 1.123047,-1.416321 2.037964,-3.065216c1.821228,-3.284058 2.392761,-3.972168 9.153809,-11.023315c5.076294,-5.294312 6.746582,-6.416809 9.011261,-6.055725c1.986359,0.317139 1.921692,1.325165 -0.23642,3.695648c-5.207977,5.718842 -8.178192,9.345306 -10.562561,12.895172c-4.307312,6.414093 -4.263641,5.613403 -0.369446,6.778473c2.772369,0.829529 6.10614,1.342194 7.137482,1.097534c0.118195,-0.026642 0.602722,-0.992645 1.077484,-2.144257c1.018311,-2.468811 3.001373,-5.746033 4.241272,-7.00885c1.068542,-1.08847 2.322449,-1.285065 3.296539,-0.516479c0.723694,0.571411 0.725616,0.570587 2.47226,-1.116486c0.961456,-0.928101 2.888794,-2.601715 4.283142,-3.719025c1.394379,-1.117279 3.719147,-3.172028 5.16568,-4.565826c2.1315,-2.054474 4.864868,-4.000183 6.389099,-4.547974c0.133575,-0.047516 2.21167,-1.251312 4.620605,-2.675598c2.408569,-1.424286 4.673615,-2.659088 5.033875,-2.744507c0.358337,-0.085388 2.408966,-1.106842 4.554596,-2.270264c4.342316,-2.354584 5.405243,-2.504242 4.736481,-0.667542c-0.248077,0.684814 -1.395844,1.70932 -3.39978,3.038055c-1.663055,1.102173 -3.786713,2.747223 -4.71936,3.655304c-0.933167,0.908051 -3.685638,3.094299 -6.116821,4.858551c-6.9328,5.030701 -12.465179,11.060913 -15.860321,17.28772c-1.399139,2.565765 -2.69754,3.253052 -5.904297,3.123993c-1.186768,-0.047791 -3.175873,0.054077 -4.420868,0.226257l-2.262451,0.313568l3.831726,1.279297c3.905731,1.304016 5.930817,2.443848 5.527313,3.111359c-0.125763,0.204834 -0.03775,0.326752 0.202362,0.271301c0.421204,-0.099945 2.485291,1.892181 3.16626,3.055328c0.19455,0.331421 0.710632,1.095612 1.14917,1.698334c2.816162,3.873322 3.526794,4.973877 4.577759,7.085999c1.265869,2.544037 4.923096,17.534576 4.698761,19.260376c-0.072632,0.559326 -0.342987,1.953949 -0.603699,3.099243c-0.259216,1.145325 -0.350372,3.180847 -0.201965,4.522736c0.347229,3.162964 0.001373,4.237152 -1.461884,4.550476c-0.621277,0.132904 -1.414825,0.237244 -1.763,0.230927l-0.002747,0zm67.772827,-82.143616c-0.038177,-1.440765 -0.186584,-1.671143 -1.506104,-2.174194c-0.812653,-0.309174 -1.550751,-0.855896 -1.640533,-1.214783c-0.327728,-1.322388 -0.960632,-1.364136 -3.990021,-0.263031c-1.539612,0.559875 -3.436615,1.168915 -4.21521,1.353424c-0.778595,0.18454 -2.280029,0.849304 -3.337463,1.47702c-1.057434,0.627411 -3.471069,1.770264 -5.364349,2.539368c-2.992584,1.215332 -3.585968,1.371307 -4.544281,1.194733c-0.606415,-0.111755 -1.141174,-0.366852 -1.18869,-0.567017c-0.045563,-0.200439 1.279053,-1.762573 2.947418,-3.472168c2.640869,-2.70578 2.880432,-3.072083 1.84964,-2.827698c-0.651184,0.154327 -1.48938,0.555756 -1.863068,0.891876c-0.749786,0.675201 -6.288208,2.418549 -7.25531,2.283997c-0.705536,-0.097748 -2.996826,-2.823029 -2.736664,-3.253845c0.465973,-0.770782 -5.643036,1.30072 -7.877502,2.671173c-2.033447,1.247192 -3.274597,1.343018 -4.351654,0.33609l-0.972717,-0.909698l-1.991852,1.092316c-1.095612,0.601074 -2.861908,1.385834 -3.924835,1.744446c-1.063477,0.358612 -2.472778,0.8526 -3.132202,1.098083c-2.267944,0.84436 -2.80423,0.462128 -2.607758,-1.861145c0.095428,-1.136261 0.049286,-2.109406 -0.107086,-2.162659c-0.156372,-0.053009 -2.126007,0.947601 -4.379944,2.223328c-2.254517,1.275452 -4.304169,2.368042 -4.555969,2.427643c-0.25177,0.059845 -1.167267,0.633179 -2.034271,1.274902c-1.511597,1.118652 -4.198029,2.40564 -7.180878,3.440308c-0.771179,0.267426 -1.907257,0.741364 -2.523865,1.052765c-0.617126,0.311646 -1.562378,0.671082 -2.100433,0.798767c-1.360321,0.322632 -3.729736,-0.564545 -3.946259,-1.47757c-0.099121,-0.417084 -0.558502,-0.76004 -1.021576,-0.761688c-0.904785,-0.003845 -8.658447,2.661011 -10.608551,3.645691c-2.212616,1.117584 -3.950348,0.490692 -3.380737,-1.219727c0.301514,-0.906128 -1.502808,-0.587067 -4.323639,0.764465c-1.37912,0.66037 -3.546417,1.545929 -4.816528,1.967133c-1.270111,0.421234 -2.390015,0.899841 -2.488586,1.062927c-0.381256,0.630463 -2.234467,0.431122 -2.39743,-0.257568c-0.156372,-0.665039 -0.255493,-0.659546 -2.111572,0.123016c-1.778778,0.750732 -2.037994,0.779297 -3.020447,0.330902c-0.816376,-0.37207 -1.368835,-0.369324 -2.293518,0.011536c-0.66983,0.275116 -1.247314,0.376709 -1.283142,0.226257c-0.095398,-0.409698 2.347443,-3.295074 2.903625,-3.426849c0.266754,-0.062897 0.894623,-0.552765 1.399994,-1.088745c0.843811,-0.895996 2.934937,-2.582764 4.726196,-3.812927c0.401703,-0.27597 1.579163,-1.120026 2.615723,-1.875427c1.036407,-0.755402 2.186401,-1.372375 2.555023,-1.370728c0.392395,0.001373 1.013641,0.813324 1.501434,1.962738c0.457489,1.078308 1.035065,1.988281 1.282745,2.023163c0.247955,0.034058 1.502258,-0.926727 2.787354,-2.136017c2.583038,-2.429291 3.238739,-2.72226 4.702423,-2.102234c1.070892,0.454163 1.468353,0.43219 2.236389,-0.124939c0.702667,-0.509369 1.668518,-2.626709 1.507477,-3.304657c-0.076324,-0.314697 0.167908,-1.20462 0.540253,-1.977875c0.601746,-1.252106 0.59021,-1.360565 -0.102844,-0.989594c-3.027039,1.615936 -3.489594,1.794159 -3.789307,1.459686c-0.167633,-0.186432 -0.885681,-0.200714 -1.597412,-0.030457c-1.290558,0.306152 -1.289581,0.302032 0.339417,-1.394653c1.797852,-1.871033 2.641113,-2.232117 3.869324,-1.656586c0.76651,0.359161 0.851227,0.328979 1.436798,-0.504944c0.499878,-0.712555 1.095581,-0.998962 3.032532,-1.458069l2.410461,-0.571686l0.293671,1.162323c0.618103,2.461395 2.391235,2.291443 6.993195,-0.670532c1.304138,-0.839417 2.665955,-1.533569 3.026215,-1.543182c0.362061,-0.00769 1.633545,-0.601898 2.829224,-1.316925c2.146851,-1.284241 3.160645,-1.516541 3.33844,-0.765839c0.12973,0.551941 -5.409515,5.10733 -6.537262,5.374512c-0.520325,0.123291 -1.127716,0.109833 -1.349731,-0.030487c-0.262909,-0.165009 -0.704163,0.026917 -1.262115,0.545898c-0.472443,0.439606 -1.295227,0.856415 -1.829041,0.925629c-1.20874,0.157043 -4.123199,2.128876 -3.988251,2.698364c0.057251,0.241364 0.755402,0.309998 1.63559,0.160095l1.536316,-0.261139l-1.606598,2.164581c-1.520966,2.0495 -1.898926,3.429291 -0.873199,3.18576c0.255493,-0.060425 1.570374,-1.110992 2.920502,-2.334564c1.349731,-1.223541 2.758514,-2.296631 3.130859,-2.385071c0.373718,-0.08786 0.972717,0.140869 1.333801,0.509369l0.657623,0.669189l2.21347,-1.709045c1.217499,-0.940186 2.308044,-1.86554 2.423492,-2.05722c0.393219,-0.650208 1.735535,-0.712006 2.953461,-0.135895c1.163574,0.550537 1.236603,0.543396 1.751312,-0.166412c0.293671,-0.407776 1.200378,-1.122528 2.011078,-1.588226c0.896393,-0.515381 1.709869,-1.392151 2.078094,-2.239258c0.59845,-1.379517 0.592407,-1.395447 -0.647339,-1.696655c-0.93457,-0.227356 -1.528503,-0.164764 -2.342926,0.246857c-2.009155,1.014862 -2.638519,1.009918 -2.492828,-0.018951c0.072205,-0.514038 0.16391,-1.330933 0.202087,-1.815582c0.057251,-0.737549 0.396912,-0.989349 2.080414,-1.547577c1.451599,-0.481079 2.192444,-0.57663 2.666229,-0.342682c0.362183,0.178223 1.335327,0.162842 2.165131,-0.034332c1.258026,-0.298462 1.841644,-0.777069 3.513336,-2.885895c1.865417,-2.35321 4.710968,-4.745148 4.865967,-4.09082c0.038177,0.157349 -0.293243,0.747711 -0.732605,1.311432c-0.440308,0.564026 -0.779144,1.11731 -0.752075,1.230164c0.038147,0.112854 -0.418335,0.821564 -0.988922,1.575317c-1.174286,1.550293 -0.78656,2.476501 0.742737,1.775208c0.85083,-0.389923 0.91217,-0.346558 0.592987,0.421204c-0.515259,1.240875 0.927948,3.777222 2.076141,3.647888c0.483551,-0.054626 0.833099,-0.283905 0.778198,-0.509644c-0.141022,-0.568939 1.65918,-4.605652 2.098511,-4.709991c0.198273,-0.046387 0.548767,0.412994 0.782318,1.020935c0.2323,0.608215 0.715424,1.097229 1.071838,1.087067c0.708435,-0.019196 0.733978,-0.079071 1.263641,-2.875732c0.198273,-1.056335 0.732483,-2.322205 1.184021,-2.812317c0.987579,-1.073639 0.902863,-1.782623 -0.213623,-1.787018c-0.458954,-0.001923 -0.855072,-0.322388 -0.897339,-0.725739c-0.141022,-1.342743 -0.362061,-1.475922 -1.851837,-1.122253c-0.815521,0.193329 -1.513092,0.222412 -1.550293,0.064545c-0.038177,-0.157898 0.551483,-1.105225 1.309235,-2.105255c0.757568,-0.999786 1.933777,-3.150085 2.61322,-4.778107c1.264069,-3.029785 2.957184,-5.284149 4.187744,-5.575775c0.381256,-0.090057 0.917816,-0.395111 1.195679,-0.677673c0.392395,-0.399536 0.53009,-0.404755 0.620453,-0.022797c0.065063,0.269928 -0.16394,0.733704 -0.507324,1.031067c-0.343079,0.297394 -0.446869,0.718872 -0.232697,0.93689c0.228851,0.231232 -0.00235,0.695557 -0.553009,1.11264c-1.159729,0.877869 -2.082214,2.68573 -2.058868,4.034515c0,0.553833 -0.255646,1.927063 -0.591614,3.050934c-0.570587,1.914978 -0.339783,2.79776 0.498535,1.902069c0.201965,-0.216644 1.173157,-2.099762 2.156616,-4.184998c2.230743,-4.728394 2.898651,-5.068878 3.787079,-1.930603c0.259216,0.912994 0.434692,1.871857 0.390472,2.130524c-0.045563,0.258942 0.156372,0.46817 0.441254,0.465149c1.458618,-0.015381 1.728546,-1.03299 1.540436,-5.805603c-0.186584,-4.7836 0.114502,-6.600525 1.184998,-7.096436c0.281982,-0.130157 0.818665,0.026642 1.195129,0.349274c0.652557,0.557678 0.686462,0.530243 0.709259,-0.569489c0,-0.635406 -0.038147,-1.823547 -0.114349,-2.640167c-0.12207,-1.302917 -0.240265,-1.441315 -0.989471,-1.128815c-0.468323,0.19577 -0.929901,0.597229 -1.025879,0.892395c-0.122314,0.368774 -0.567291,0.566467 -1.428802,0.632385c-1.034088,0.078796 -1.614014,0.476959 -3.309479,2.271393c-1.131012,1.19635 -2.304749,2.14093 -2.608704,2.098663c-0.664093,-0.092255 -0.327576,-2.181885 0.584595,-3.630035c0.335541,-0.531067 0.906677,-1.577789 1.271484,-2.326599c0.457031,-0.93689 1.484283,-1.890533 3.297516,-3.060547c1.448303,-0.934692 2.613647,-1.782074 2.589905,-1.882843c-0.076202,-0.323181 2.214539,-2.698639 2.975433,-3.085266c1.50473,-0.763901 2.079437,-0.289413 1.539612,1.270248c-0.27829,0.803711 -0.36261,1.743896 -0.187134,2.0896c0.23642,0.463791 0.678101,-0.110382 1.687622,-2.196411l1.366455,-2.824417l0.820892,0.722443c0.451569,0.397324 1.01651,0.946777 1.254852,1.221375c0.754456,0.869064 1.536316,0.041733 1.758331,-1.860062c0.435638,-3.740158 0.884735,-5.01973 2.37915,-6.778458c1.710419,-2.014099 1.815582,-2.736267 0.34668,-2.387817c-0.543549,0.128784 -0.95871,0.358612 -0.922333,0.510727c0.038025,0.15213 -0.305359,0.343796 -0.759644,0.426437c-0.543549,0.098862 -1.190491,0.93689 -1.896576,2.457016c-0.963409,2.074783 -2.164978,3.196472 -2.393188,2.234589c-0.049683,-0.201004 -0.529114,0.060959 -1.069916,0.582123c-0.540802,0.521164 -1.371155,1.039307 -1.844818,1.151901c-1.706268,0.404465 5.249847,-7.526718 8.894012,-10.141342c0.935394,-0.671356 1.783875,-0.969009 3.47052,-1.218613c1.898346,-0.280624 2.422424,-0.496735 3.50592,-1.446808c0.754974,-0.662033 1.614044,-1.115646 2.108856,-1.113449c1.0802,0.003571 1.091736,-0.061508 -0.350525,2.006134c-0.681793,0.97699 -1.117432,1.818314 -0.968048,1.869125c0.148529,0.051071 1.370605,-0.818008 2.714294,-1.930634c1.496368,-1.238937 2.810669,-2.055557 3.390472,-2.106628c1.071838,-0.094193 1.870605,-0.694977 3.158844,-2.376556l0.889801,-1.160675l-1.333801,-0.110382c-1.109619,-0.091995 -1.544281,0.018936 -2.586761,0.657623c-1.567078,0.96106 -1.966858,1.060181 -2.094818,0.519531c-0.19043,-0.805099 1.170013,-1.530823 4.539063,-2.420212c1.852356,-0.489319 3.762939,-1.129929 4.245514,-1.423462c0.481781,-0.294083 1.947235,-0.794937 3.25647,-1.113449c2.31546,-0.563461 2.361053,-0.557693 1.664825,0.21994c-0.393738,0.439606 -0.835022,0.758682 -0.980682,0.708984c-0.505371,-0.172714 -2.879883,1.507477 -3.508667,2.483093c-0.945679,1.466293 0.190277,1.697769 1.900696,0.386887c1.254303,-0.961334 2.353607,-1.458054 2.438721,-1.100815c0.038177,0.091156 -0.175446,0.7444 -0.435608,1.452011c-0.259216,0.707611 -0.32019,1.382278 -0.137299,1.499527c0.578125,0.363831 1.710938,-0.081833 2.088379,-0.821564c0.543121,-1.064301 7.106873,-5.581818 8.637543,-5.944824c1.281799,-0.30368 2.309448,0.12027 1.906738,0.786697c-0.106567,0.177383 0.038147,0.354218 0.316589,0.392929c0.922363,0.128235 0.879089,-1.381989 -0.076355,-2.634384c-1.129089,-1.48085 -1.626617,-1.589035 -3.094574,-0.673294c-0.93866,0.585434 -1.208588,0.646652 -1.644226,0.37262c-0.434265,-0.273483 -0.711182,-0.191391 -1.658356,0.490417c-1.585632,1.141724 -2.293915,1.265015 -1.80899,0.314392c0.495636,-0.971481 -0.046143,-1.296051 -1.563354,-0.93634c-1.616364,0.383331 -1.608398,-0.011246 0.038147,-1.098618c1.01886,-0.68071 1.594543,-0.873734 2.385223,-0.800705c0.572906,0.053009 1.470825,-0.00383 1.994324,-0.129868c0.734924,-0.174088 0.861084,-0.381683 0.55481,-0.907516c-0.575287,-0.986862 0.847076,-3.655304 2.354431,-4.416733c0.694031,-0.350372 1.592224,-0.945679 1.996643,-1.322418c0.403503,-0.376724 1.353455,-0.830902 2.110229,-1.009109c1.501465,-0.353943 5.258606,-2.478973 6.023315,-3.407349c0.263489,-0.319351 1.309265,-1.044525 2.323303,-1.611008l1.844543,-1.030243l1.436218,0.546692c1.909058,0.726563 1.971436,1.3647 0.270874,2.788986c-1.330627,1.115372 -9.874695,5.596909 -11.326721,5.941528c-0.366272,0.086761 -1.064026,0.562897 -1.549866,1.057983c-0.767517,0.781738 -0.787415,1.112076 -0.148865,2.509171c0.404358,0.884995 1.141174,1.914429 1.636841,2.287872c0.523071,0.394577 1.089966,1.529175 1.352051,2.707153c0.623169,2.801605 -0.63855,5.541168 -3.350098,7.273544c-2.199036,1.40506 -3.885284,1.677444 -4.125,0.666687c-0.145111,-0.609299 -0.201935,-0.604355 -0.935364,0.079636c-0.430145,0.400894 -1.110565,0.807007 -1.513123,0.902298c-0.40213,0.095551 -1.114136,0.481354 -1.581909,0.857529c-1.218475,0.979736 -2.3797,1.177155 -3.458008,0.588989c-0.852173,-0.464325 -1.030396,-0.446472 -1.940765,0.194138c-3.862915,2.718964 -6.314697,3.904083 -8.071228,3.900513c-0.941986,-0.001923 -1.390106,0.211975 -2.141357,1.022018c-0.522156,0.563446 -1.212311,1.086533 -1.533051,1.162598c-0.32016,0.07579 -1.079254,0.58844 -1.686218,1.138992c-0.606842,0.550262 -1.807068,1.610992 -2.668182,2.357056c-2.037964,1.766693 -2.152893,1.891632 -3.684692,3.994141c-2.322296,3.187958 -5.636017,11.771027 -4.481384,11.606537c0.19455,-0.026642 1.068146,-0.246307 1.944061,-0.486023c1.556793,-0.426422 1.60141,-0.406403 1.970459,0.895142c0.20993,0.73233 0.383057,1.51355 0.390045,1.735687c0.038177,0.659271 1.31665,1.415771 2.105957,1.228485c0.402679,-0.095551 1.745819,-0.796021 2.983795,-1.556061c2.453705,-1.507233 3.280212,-1.621185 3.548767,-0.490143c0.152252,0.649658 0.358337,0.676575 1.749939,0.227905c0.866608,-0.279816 2.115845,-0.794647 2.775269,-1.144775c0.659973,-0.349823 1.410675,-0.651031 1.668121,-0.669434c0.55603,-0.039001 4.833679,-2.552826 4.759674,-2.796661c-0.038147,-0.092255 -0.80426,-0.211975 -1.724823,-0.264435c-3.448669,-0.197693 -3.720917,-1.879822 -0.312347,-1.93721c3.884888,-0.065628 11.072205,-2.568771 14.340332,-4.994476c2.535156,-1.88147 4.224121,-4.163559 4.172363,-5.636719c-0.038147,-0.604919 0,-1.651917 0.038147,-2.327408c0.061096,-0.99675 -0.156372,-1.315002 -1.15271,-1.690903c-1.663879,-0.628815 -1.654114,-1.718369 0,-1.994339c0.690613,-0.113678 1.647522,-0.294632 2.126404,-0.401718c1.281372,-0.286392 2.949341,1.171661 3.372925,2.948517c0.366272,1.540985 -0.434692,4.972778 -1.531677,6.555771c-0.899658,1.298523 -0.413391,2.087418 1.765747,2.863678c1.112732,0.39595 2.180908,0.682617 2.374512,0.636765c0.789307,-0.187271 2.163147,1.117844 3.525513,3.348053c1.601013,2.623123 1.434326,3.234085 -0.931763,3.414749l-1.275208,0.097229l0.726013,2.071472c1.02533,2.924622 1.205444,3.146484 3.454712,4.250885c2.244751,1.102478 4.777954,4.138031 5.69574,6.825958c0.520813,1.52533 0.478516,1.701904 -0.489136,2.024811c-1.661926,0.554932 -3.732605,0.043121 -4.381897,-1.083252c-0.605042,-1.050568 -0.942383,-1.013489 -4.40271,0.483276c-0.535706,0.23175 -0.868958,0.185913 -0.943909,-0.129333c-0.064636,-0.267975 -0.425842,-0.413788 -0.804688,-0.324005c-0.533386,0.126587 -0.658997,-0.105164 -0.556152,-1.026947c0.072632,-0.654907 0.362061,-1.468781 0.642273,-1.808716c0.362,-0.43988 0.33551,-0.677673 -0.099121,-0.825958c-0.433838,-0.14801 -1.042053,0.141968 -2.111206,1.007202c-1.478088,1.19635 -2.583008,1.708466 -2.706299,1.254578c-0.038208,-0.126312 -0.32019,-0.389099 -0.634338,-0.582123c-0.463074,-0.283936 -0.937805,0.038177 -2.506287,1.698334c-1.965881,2.081635 -2.604431,2.27713 -3.223938,0.987122l-0.346649,-0.720245l-1.232483,1.176605c-0.711182,0.678253 -1.801544,1.311157 -2.576019,1.494873c-0.739075,0.175446 -1.860748,0.747681 -2.492706,1.271881l-1.14917,0.953369l-0.225281,-0.955566c-0.221039,-0.930298 -1.36554,-1.089569 -1.866638,-0.259766c-0.118347,0.196869 -1.005402,0.462128 -1.968811,0.589264c-1.193756,0.157349 -2.122284,0.497559 -2.91391,1.067322c-1.512573,1.08902 -1.877502,0.915192 -1.525208,-0.726013c0.160217,-0.737 0.266785,-1.42868 0.240265,-1.53714c-0.091705,-0.381409 -1.779724,0.26828 -3.109009,1.195282c-2.945068,2.05365 -4.378143,2.790924 -4.848663,2.494904c-0.247528,-0.15625 -0.780914,-0.117249 -1.182648,0.086487c-0.401581,0.204041 -0.913147,0.25647 -1.135559,0.116425c-0.221588,-0.14032 -1.058807,-0.099945 -1.858398,0.090088c-1.393402,0.330597 -1.470703,0.28418 -1.881195,-1.114014c-0.23642,-0.802338 -0.459381,-1.635986 -0.497009,-1.852905c-0.038177,-0.216675 -0.267181,-0.347351 -0.50827,-0.290253c-0.784607,0.186188 -0.749329,-1.094513 0.045593,-1.604675c0.63623,-0.409149 0.641296,-0.55304 0.038177,-0.823761c-0.653381,-0.288879 -0.983459,-0.133453 -2.744934,1.293304c-1.349731,1.092285 -2.429962,1.690338 -3.312347,1.832855c-1.270081,0.204559 -1.327332,0.143616 -1.926361,-2.063232c-0.457031,-1.683502 -0.44455,-2.917511 0.049286,-4.749268c0.366302,-1.36142 0.6409,-2.581116 0.609741,-2.710999c-0.038177,-0.129608 -0.732056,-0.062347 -1.558716,0.149078c-1.946808,0.498657 -3.988098,2.870819 -3.659973,4.253387c0.190857,0.806458 -0.038147,1.078278 -1.384613,1.746368c-0.893066,0.438782 -1.954773,1.342163 -2.382843,2.027008c-0.424103,0.679321 -1.439117,1.759003 -2.255463,2.398773c-3.243439,2.542694 -3.190857,4.738281 0.068909,2.853241c0.885681,-0.512665 1.636414,-0.825409 1.667175,-0.695251c0.080017,0.342133 -1.029022,1.931183 -2.601715,3.723969c-1.353851,1.543427 -1.560486,3.296417 -0.407776,3.456757c0.448273,0.062073 2.570557,-1.195557 3.216522,-1.90564c0.301086,-0.329498 2.705902,-1.628296 3.260712,-1.759552c0.259216,-0.061493 0.572388,0.317169 0.696625,0.841614c0.343109,1.44104 1.321869,1.964142 2.954437,1.576965l1.420441,-0.336914l-0.625916,1.380341c-0.342957,0.758972 -1.197479,2.022614 -1.896027,2.808197c-2.458801,2.762909 -1.224518,2.93396 3.462524,0.479431c2.030731,-1.062927 6.981659,-3.254669 7.191193,-3.183289c0.121887,0.042023 0,0.68042 -0.270477,1.418793c-0.641724,1.739777 -0.567291,1.936401 0.622345,1.654388c0.543945,-0.129059 0.961456,-0.347626 0.928925,-0.485474c-0.08374,-0.3479 3.246185,-2.145355 5.283752,-2.854065c1.61087,-0.559875 1.687195,-0.545593 1.792786,0.332825c0.102814,0.852295 0.221039,0.884155 1.680206,0.443726l1.568848,-0.473938l-0.517059,1.045624c-0.282532,0.574982 -0.489166,1.170288 -0.454285,1.322968c0.038147,0.152374 -0.270905,0.989319 -0.678101,1.859222c-0.422058,0.901459 -0.544525,1.779053 -0.286133,2.04129c0.416962,0.421204 0.537506,0.381409 1.427307,-0.47641c0.535309,-0.515411 1.201721,-0.991272 1.481964,-1.057434c0.27829,-0.066467 0.833923,-0.483826 1.231934,-0.927826c0.396912,-0.444031 1.644775,-1.335602 2.771545,-1.98172c1.127594,-0.646088 2.875183,-1.95697 3.883759,-2.913361c1.009521,-0.955841 2.08783,-1.798279 2.39743,-1.871582c0.346649,-0.081818 0.70459,0.466248 0.930847,1.421265c0.201935,0.855347 0.577026,1.505829 0.83075,1.445435c1.335724,-0.316895 2.690002,-1.352356 3.265686,-2.498199c0.354767,-0.70871 1.299469,-1.684601 2.095764,-2.168701c0.795502,-0.483826 1.892883,-1.227417 2.437805,-1.652191c0.854492,-0.665863 1.006226,-0.70816 1.101624,-0.306152c0.148987,0.629333 -0.729309,2.953461 -1.252808,3.314819c-0.232727,0.15979 -0.46814,0.746582 -0.52594,1.304565c-0.057251,0.557678 -0.528748,1.521759 -1.046753,2.141754c-0.827881,0.991821 -1.025299,2.190399 -0.560852,3.400787c0.16806,0.43631 1.662476,0.173248 1.556396,-0.273499c-0.106567,-0.454163 2.06366,-2.443542 3.887573,-3.561127c0.894043,-0.547791 1.863525,-1.285065 2.154419,-1.638458c0.289978,-0.352844 1.018311,-0.758148 1.616394,-0.899811c1.99939,-0.474213 6.13739,-3.355743 6.456604,-4.496368c0.160095,-0.575287 0.603149,-1.119507 0.983032,-1.209564c0.381531,-0.090057 1.026672,-0.539032 1.437195,-0.997589c0.886108,-0.989319 1.953247,-1.312531 2.502014,-0.757843c0.217346,0.219666 0.679077,0.331696 1.025757,0.249329c0.753052,-0.178223 1.454895,0.683167 1.837952,2.255188c0.428223,1.761475 -1.057068,5.903076 -2.858215,7.967957c-0.878113,1.006378 -1.561401,1.976746 -1.518982,2.156342c0.04187,0.179565 -0.706909,0.662567 -1.666626,1.073914c-1.040283,0.445923 -2.425842,1.485229 -3.433838,2.575623c-1.884521,2.038544 -6.599182,5.22403 -7.724426,5.21936c-0.429565,-0.001648 -0.834473,-0.444275 -0.984009,-1.075562c-0.523071,-2.2052 -1.675903,-2.345795 -3.819458,-0.465973c-1.31488,1.15271 -6.401886,4.33078 -7.256256,4.533722c-0.274597,0.065063 -1.03891,0.528015 -1.697937,1.02832c-0.699493,0.531036 -2.485291,1.305389 -4.288757,1.858673l-3.090363,0.947876l-0.038147,-1.611816l-0.00412,-0.002472zm6.961609,-40.568909c0.605042,-0.448944 1.021606,-0.539825 1.899323,-0.414642c1.223541,0.174103 1.850037,-0.183411 3.259338,-1.861694c0.756775,-0.900909 1.591644,-0.84079 2.124634,0.152954c0.1716,0.320709 0.762787,0.554657 1.312927,0.520355c0.7948,-0.049713 1.185425,-0.444031 1.895081,-1.913055c1.045776,-2.164581 1.776428,-2.615997 2.802673,-1.731842c0.408203,0.35202 1.287415,0.578003 1.95343,0.502502c0.984802,-0.111755 1.179749,-0.26828 1.045227,-0.835571c-0.102844,-0.436584 0.19043,-0.846832 0.783813,-1.095062c1.534363,-0.641144 0.752075,-3.012482 -1.21521,-3.683578c-0.831299,-0.283646 -1.845337,-0.364929 -2.260925,-0.180954c-0.414246,0.183151 -1.322693,0.561539 -2.019043,0.84079c-0.695801,0.279251 -1.689819,0.965454 -2.208374,1.52478c-0.518829,0.559341 -1.335724,1.110168 -1.815979,1.224121c-0.480408,0.113953 -0.98111,0.386627 -1.113739,0.606018c-0.133575,0.219116 -0.704163,0.415436 -1.269684,0.435486c-1.271484,0.045593 -2.542938,1.162598 -2.753845,2.41803l-0.152649,0.915466l-0.846161,-0.929199c-1.51297,-1.662354 -1.958893,-1.314178 -4.416718,3.44989c-0.693878,1.346039 -1.244446,2.520996 -1.223022,2.611053c0.038177,0.166962 2.815216,-1.514343 4.219849,-2.556122l-0.000946,0.000275zm-137.30011,55.402649c-1.483307,-0.106812 -1.910583,-0.319885 -2.116241,-1.057709c-0.140991,-0.508545 -0.952271,-1.720276 -1.799774,-2.693695c-0.847534,-0.973145 -1.716858,-2.282104 -1.931458,-2.908417c-0.453766,-1.323242 -1.154785,-1.281799 -3.063843,0.182037c-1.925812,1.476746 -2.972534,1.330109 -2.925995,-0.409943c0.037598,-0.769409 -0.038177,-1.604431 -0.114502,-1.855133c-0.659576,-1.971802 -2.094849,-5.870117 -2.605835,-7.079407c-1.077484,-2.546509 -0.129883,-5.987366 1.916473,-6.949249c0.875946,-0.411896 -0.164215,-1.206268 -1.244446,-0.950073c-0.514282,0.121918 -1.689392,0.779266 -2.612396,1.46109c-0.97644,0.722137 -1.887238,1.167542 -2.180908,1.067596c-0.27832,-0.094757 -0.967529,-1.554169 -1.533447,-3.242889c-1.025848,-3.060822 -1.025299,-3.082794 0.240112,-6.745514c1.065826,-3.08609 1.610321,-3.999084 3.398865,-5.697968c1.920715,-1.824615 2.09906,-2.154419 1.812805,-3.361206l-0.316437,-1.338074l-1.557343,0.586792c-3.902008,1.469879 -3.942932,1.466583 -4.544678,-0.378662c-0.48822,-1.49649 -0.414764,-1.822968 0.683167,-3.03363c0.934143,-1.030792 1.155182,-1.644226 0.919189,-2.55011c-0.171753,-0.655975 -0.122345,-1.561554 0.106537,-2.012421c0.229004,-0.450897 0.270874,-1.184845 0.091705,-1.631073c-0.686462,-1.697205 -0.20993,-6.835022 0.917389,-9.92276c0.551941,-1.509674 0.529541,-1.766144 -0.167633,-1.930878c-0.505798,-0.119171 -1.090393,-0.973419 -1.573517,-2.298584c-0.665039,-1.824631 -0.652985,-2.349915 0.088013,-3.899689c0.842834,-1.767517 0.588287,-2.881241 -0.703217,-3.077576c-0.370026,-0.05629 -0.390076,-0.610962 -0.057251,-1.639557c0.623169,-1.927597 0.232697,-3.931824 -0.724243,-3.705002c-0.828003,0.19632 -5.3815,-1.5009 -5.508087,-2.053101c-0.16391,-0.717499 1.252808,-7.624191 1.924866,-9.381271c0.362183,-0.946777 0.552063,-2.164291 0.42218,-2.70578c-0.308624,-1.308136 -2.31958,-2.546799 -3.781067,-2.335098c-1.100677,0.159271 -1.185394,0.052719 -1.500885,-1.886688c-0.46817,-2.880692 -0.106537,-3.581711 3.032135,-5.901428c3.291321,-2.431198 4.396667,-2.806824 4.709015,-1.600296c0.121918,0.46817 0.6008,1.120041 1.064453,1.44873l0.844635,0.597778l1.047668,-1.143936c0.576233,-0.629349 1.29483,-1.707932 1.596863,-2.396591c0.301086,-0.68895 0.899139,-1.525894 1.326813,-1.859512c1.5112,-1.179077 2.434631,-3.320587 2.079041,-4.820923c-0.301086,-1.264755 -0.125641,-1.684875 1.373474,-3.331848c1.894257,-2.078629 1.672241,-2.658829 -0.477509,-1.251846c-1.284515,0.840515 -1.463257,0.886093 -2.397827,0.612335c-1.144897,-0.335007 -1.375824,-0.212265 -4.165894,2.220306c-2.350739,2.048981 -2.93631,2.240631 -3.895996,1.273544l-0.725586,-0.731232l-1.288635,1.537415c-1.485657,1.772736 -1.768219,1.891632 -3.088013,1.296875c-0.903931,-0.406937 -1.03891,-0.384689 -1.967285,0.322372c-0.548767,0.417374 -1.24826,1.290009 -1.554993,1.938858c-0.309052,0.648849 -1.207367,1.868286 -2.001312,2.709351c-1.399994,1.483871 -1.409729,1.527252 -0.309052,1.450363c1.029968,-0.07193 1.130463,0.052734 1.085846,1.347137c-0.038177,0.784485 0.038177,1.99707 0.144714,2.694794c0.27829,1.83699 -0.087463,2.812866 -1.151337,3.064667c-1.642456,0.389648 -4.777557,-2.262878 -5.812073,-4.917587c-0.734528,-1.88504 -0.909973,-2.034958 -2.929291,-2.507523c-2.044159,-0.478333 -2.731598,-0.50882 -3.685638,-0.163376c-0.853149,0.308899 -2.52951,-0.488495 -2.720337,-1.293869c-0.106537,-0.45636 -0.948975,-1.675247 -1.868164,-2.708527c-0.918762,-1.03299 -1.959442,-2.381485 -2.311737,-2.996567c-0.350922,-0.615356 -1.314331,-1.71727 -2.138092,-2.449051c-0.823761,-0.731766 -1.942566,-1.864716 -2.485687,-2.51796c-1.332031,-1.60112 -4.895203,-2.572876 -8.765656,-2.390564c-1.638733,0.076889 -3.565521,0.145264 -4.281769,0.151031c-1.804871,0.015106 -11.812073,2.64949 -16.456451,4.332443c-4.744873,1.719467 -8.768799,3.742889 -10.61554,5.337967c-0.770752,0.665329 -1.451202,1.335327 -1.512146,1.488541c-0.060974,0.153229 -0.362183,0.535172 -0.671082,0.848755c-0.308655,0.313843 -1.893829,3.310699 -3.5242,6.659836c-4.304169,8.844177 -4.626648,12.444016 -1.770416,19.7659c1.894653,4.856339 2.491333,5.620239 7.686798,9.838181c0.517059,0.419846 2.664459,1.459702 4.772339,2.310928c6.465973,2.611053 11.895813,5.452744 12.986328,6.79686c1.714111,2.111847 5.787354,4.904419 7.890533,5.409637c1.240326,0.298218 3.569794,0.895447 5.175446,1.327362c1.606598,0.43219 3.396088,0.906677 3.977386,1.054962c0.581299,0.147736 1.986359,0.627716 3.122467,1.065948c6.088013,2.347443 13.612396,3.714081 17.359833,3.153076c3.370972,-0.504944 6.10257,-1.863617 9.860291,-4.904938c1.905365,-1.541534 3.792603,-3.223938 4.194733,-3.738495c0.40213,-0.514862 0.876343,-2.132721 1.053711,-3.595459c0.179169,-1.462738 0.358337,-2.852142 0.397461,-3.087738c0.041901,-0.235596 0.611511,-0.555481 1.267792,-0.711182c1.496765,-0.355042 2.130646,0.573883 2.080811,3.047913c-0.038177,0.961334 0.12619,1.911957 0.328125,2.11322c0.722321,0.729584 -4.371155,8.965576 -6.892822,11.144409c-1.714935,1.482239 -7.516815,4.934326 -8.807373,5.240234c-0.533386,0.126587 -1.632294,0.224609 -2.442047,0.218018c-0.809357,-0.007416 -3.019104,0.224609 -4.910583,0.513489c-3.855469,0.589264 -8.978729,0.301208 -11.414612,-0.641998c-0.820038,-0.317139 -4.053314,-1.475891 -7.185516,-2.574799c-6.116028,-2.145355 -10.199951,-3.852478 -12.164093,-5.084534c-0.674377,-0.423157 -2.946869,-1.403961 -5.051025,-2.179413c-3.672607,-1.353973 -3.823364,-1.375397 -3.779694,-0.533234c0.038177,0.607391 -0.270752,0.983002 -0.986176,1.221619c-0.567291,0.189484 -1.517639,0.895172 -2.111023,1.568176c-0.59436,0.673004 -1.31955,1.280396 -1.611847,1.349609c-0.293671,0.069458 -3.085663,-0.747986 -6.207184,-1.816681c-3.120941,-1.06842 -5.85434,-1.819122 -6.072632,-1.668396c-0.217346,0.150757 -0.423004,0.829254 -0.454712,1.507751c-0.148956,3.247559 -1.899323,4.266815 -5.42804,3.164368c-2.403473,-0.750732 -3.080185,-0.679352 -3.735901,0.393463c-0.259216,0.422607 -0.758133,0.83667 -1.110977,0.920166c-0.350372,0.083466 -2.461548,-0.152405 -4.686249,-0.52475c-2.225113,-0.37262 -4.657272,-0.778442 -5.404282,-0.902008c-0.747025,-0.123566 -2.02179,-0.341309 -2.833481,-0.483551c-0.811127,-0.141968 -1.650818,-0.216095 -1.865402,-0.164764c-0.740417,0.177673 -1.557739,3.274994 -1.035461,3.925232c0.27829,0.348175 1.908096,1.68927 3.619461,2.980377c1.711777,1.291107 3.152267,2.51767 3.201553,2.726105c0.133591,0.570313 -11.152634,2.94577 -12.77037,2.687653c-1.627609,-0.259491 -2.139587,-0.10022 -2.33728,0.729309c-0.27829,1.164795 -2.119949,1.263641 -5.815765,0.31192c-1.00444,-0.258667 -2.073959,-0.411591 -2.37738,-0.339386c-0.304779,0.07193 -1.918396,-0.358063 -3.589264,-0.955292c-3.436188,-1.228516 -4.251022,-1.231812 -3.519928,-0.015106c0.441254,0.734802 0.27829,1.013519 -1.326813,2.259857c-1.672241,1.299622 -2.076294,1.464386 -4.691452,1.912506c-2.785416,0.477509 -4.817368,0.298462 -7.039734,-0.621399c-0.477509,-0.197418 -1.584793,-0.564545 -2.461548,-0.815247c-0.875931,-0.250977 -2.841431,-0.815247 -4.367447,-1.254303c-3.999359,-1.150269 -6.677277,-2.660492 -8.661301,-4.884918c-0.956528,-1.071991 -2.741348,-2.764557 -3.966278,-3.761292c-2.58345,-2.102234 -3.715851,-3.367828 -3.969437,-4.436249c-0.099121,-0.419006 -1.36937,-1.718353 -2.822342,-2.888092l-2.641113,-2.126678l-0.477646,-3.260193c-0.262924,-1.79303 -0.535583,-4.174805 -0.607254,-5.292938c-0.114502,-1.770264 -0.373718,-2.26561 -1.998993,-3.840103c-1.76944,-1.711502 -1.94957,-1.786194 -3.398026,-1.400665c-1.510223,0.401993 -1.552109,0.377563 -3.355591,-1.951492c-1.579147,-2.039093 -1.990067,-3.032272 -3.034058,-7.327637c-0.862747,-3.55069 -1.124847,-5.644699 -0.918213,-7.3367c0.723679,-5.918457 0.841476,-10.247314 0.339249,-12.397064l-0.547256,-2.333725l-1.709991,0.492065c-0.940598,0.270737 -2.039352,0.439346 -2.442856,0.375092c-0.404068,-0.064529 -1.15657,-1.030807 -1.675949,-2.152496c-0.518005,-1.119492 -1.35022,-2.751633 -1.848663,-3.627014c-0.730194,-1.282059 -0.825607,-1.962204 -0.491913,-3.496323c0.229004,-1.047836 0.559875,-2.098129 0.737198,-2.334549c0.828903,-1.103836 0.642731,-5.233078 -0.395615,-8.789536c-0.906616,-3.105042 -0.974991,-3.821152 -0.410034,-4.31102c0.373779,-0.322922 0.877304,-1.128006 1.120728,-1.789215c0.244324,-0.660934 1.042542,-2.118713 1.77507,-3.239029c1.595016,-2.439713 2.123184,-3.926605 1.610397,-4.53508c-0.875534,-1.039597 0.12973,-2.803818 3.476547,-6.098862c1.870483,-1.842209 3.362595,-3.509781 3.316055,-3.7061c-0.045593,-0.196335 0.102829,-0.401733 0.335541,-0.45665c0.232712,-0.054916 1.027237,-0.69278 1.767654,-1.417694c1.331604,-1.302094 2.294449,-1.585464 2.496552,-0.734787c0.057251,0.24054 -0.691147,1.341629 -1.663452,2.446564c-0.972183,1.104675 -1.938446,2.558334 -2.147827,3.22998c-0.209503,0.671631 -0.542175,1.53714 -0.739044,1.922653c-0.346802,0.678238 -0.843399,3.113266 -1.205994,5.905273c-0.095413,0.743042 -0.408997,1.629959 -0.694839,1.971542c-1.18251,1.413849 -1.977036,3.835434 -2.126953,6.485199c-0.163788,2.879044 0.145248,5.156754 0.681931,5.029617c0.163803,-0.038712 1.042068,-0.690582 1.949982,-1.447617c0.907654,-0.757324 2.24379,-1.517654 2.969803,-1.689819c0.96257,-0.22818 1.934326,-0.966278 3.585144,-2.723083c1.245804,-1.325424 2.238586,-2.520432 2.207001,-2.655807c-0.038162,-0.135376 1.374725,-1.382538 3.126587,-2.771408c1.751328,-1.388855 3.63678,-3.019638 4.189651,-3.623459c2.150574,-2.351013 5.202332,-1.794693 4.904541,0.894058c-0.19838,1.8013 0.145126,1.979507 1.429642,0.741119c0.579514,-0.558243 1.621033,-1.09726 2.541718,-1.315826c1.846191,-0.437698 6.756775,-3.073456 7.175659,-3.851364c0.528717,-0.981918 5.578918,-4.467804 10.966049,-7.570099c4.568863,-2.630814 5.559845,-3.081421 7.252533,-3.297516c2.49408,-0.318253 2.607208,0.144989 0.631012,2.576172c-3.147049,3.870316 -4.01268,8.407867 -1.668396,8.742035c0.834473,0.118896 1.160263,0.490967 1.431564,1.634079c0.447296,1.886688 1.077896,1.74884 3.493851,-0.763351c2.246948,-2.336197 4.537689,-3.979324 5.384384,-3.861526c0.425323,0.059036 0.679459,0.777084 0.810165,2.291977c0.171753,1.970169 0.320709,2.249695 1.388855,2.614899l1.197891,0.408585l1.272995,-1.557739c0.699921,-0.856705 1.661514,-1.900131 2.136276,-2.318878c1.673615,-1.475906 5.233917,-4.488403 7.824509,-6.620026c1.440903,-1.185944 3.291336,-2.791458 4.111801,-3.568268c1.322281,-1.251572 6.786163,-4.389557 8.246277,-4.735809c1.176468,-0.278976 1.282181,0.718597 0.213486,1.99762c-0.974915,1.165359 -3.092117,5.585114 -2.947418,6.154053c0.038162,0.11203 0.773514,0.28421 1.656036,0.382507c0.889801,0.099121 1.666611,0.439606 1.743774,0.763351c0.247665,1.049194 0.841461,0.860275 2.453293,-0.781204c1.582855,-1.612106 3.18988,-2.692322 6.276932,-4.219025c0.899139,-0.444839 2.59375,-1.718369 3.76474,-2.83046c3.867126,-3.67012 8.641235,-7.186493 14.700989,-10.826691c3.288025,-1.975662 6.348175,-3.679749 6.80014,-3.786835c1.312408,-0.311111 1.403137,1.414948 0.198242,3.78244c-1.215729,2.390823 -1.185913,2.983109 0.201965,4.038345c1.223969,0.930862 2.252167,0.539291 4.459991,-1.697769c0.849854,-0.861374 2.487213,-2.134094 3.639099,-2.828796c1.151917,-0.694702 3.005646,-2.217575 4.119781,-3.384293c2.25119,-2.356781 3.03598,-2.890579 7.671417,-5.218521c1.762573,-0.885269 3.681396,-1.952866 4.264069,-2.372162c1.796082,-1.29303 3.639099,-1.966599 4.427582,-1.618423c1.043854,0.461304 0.354614,1.688156 -2.012054,3.57486c-1.113708,0.88829 -2.072418,1.921555 -2.1297,2.296646c-0.152649,1.00856 0.661346,8.455093 1.122528,10.244293c0.411469,1.596176 1.579712,3.074005 2.29541,2.904312c0.224884,-0.052994 1.198425,-1.023102 2.165527,-2.155502c1.084503,-1.269699 2.161957,-2.154968 2.809723,-2.308731c1.076508,-0.255371 2.278259,0.078247 2.680389,0.743851c0.570038,0.944305 1.408752,1.899323 1.622803,1.848526c0.129456,-0.030487 1.350708,-1.207092 2.712921,-2.614075c2.635223,-2.72226 3.25235,-3.038574 5.291718,-2.713196c2.168823,0.346252 5.410889,-1.056885 8.843781,-3.826645c3.980133,-3.211578 6.584167,-4.508179 9.308228,-4.634766c1.138855,-0.053268 2.536499,-0.316864 3.105713,-0.586243c0.569214,-0.269638 1.253754,-0.559052 1.520538,-0.643356c1.041504,-0.328949 2.356354,-1.2005 2.844574,-1.885315c0.28241,-0.394852 0.855896,-0.799606 1.277527,-0.899277c0.420654,-0.099945 1.481384,-0.770218 2.356781,-1.489914c0.875519,-0.719406 1.937622,-1.478104 2.360626,-1.685684c1.318024,-0.647202 2.892487,-3.119858 3.188507,-5.006546c0.635254,-4.057312 -1.467407,-8.649231 -4.21106,-9.197037c-1.728943,-0.345154 -4.073242,-1.784805 -3.757751,-2.307343c0.406799,-0.673019 1.417297,-0.705154 3.087189,-0.098862c0.887054,0.322357 2.197113,0.491776 2.912018,0.377274c0.986176,-0.158157 1.694611,0.093369 2.939575,1.044815c0.901886,0.689209 2.718018,1.632141 4.035065,2.095093c1.3172,0.462967 2.436401,1.010483 2.487213,1.216705c0.049286,0.206482 0.496033,0.679321 0.990448,1.051666c1.481384,1.116196 1.78714,2.566574 0.807007,3.821426c-0.801941,1.026413 -1.230164,2.843079 -0.829956,3.517471c0.091309,0.15239 0.255524,0.775162 0.365906,1.383911c0.179169,0.997589 0,1.230713 -1.979919,2.365295c-1.199402,0.691971 -3.286682,2.219772 -4.638733,3.394455c-1.351532,1.174957 -3.371948,2.748337 -4.488831,3.496323c-1.691864,1.132675 -2.038116,1.572006 -2.069275,2.625595c-0.060974,2.024536 -0.125641,2.177216 -1.981293,4.679245c-0.972717,1.310333 -2.921875,3.251114 -4.332031,4.312943c-2.957153,2.227188 -4.784943,5.344574 -4.48703,7.654129c0.155975,1.217789 0.373291,1.420166 1.843445,1.722214c1.219025,0.250412 1.728516,0.597214 1.899445,1.292755c0.460236,1.876526 2.106934,3.357376 4.46701,4.019135c1.99939,0.560425 2.36377,0.835571 2.918152,2.203827c0.347076,0.860016 0.802765,1.670044 1.009949,1.800201c0.205658,0.130157 0.704987,1.103287 1.107147,2.162643c0.650635,1.712051 0.625092,2.056946 -0.228485,3.105865c-0.528717,0.648849 -1.304565,2.491608 -1.724396,4.095184l-0.763763,2.915298l1.335327,1.711777c0.734375,0.941284 1.494446,2.501495 1.688416,3.466949c0.440857,2.189819 -0.486694,8.347717 -1.559509,10.355225c-0.443054,0.827332 -0.816345,2.68959 -0.829803,4.138031c0,1.448456 -0.506897,4.583694 -1.095612,6.967377c-0.754822,3.057816 -0.919708,4.652344 -0.557526,5.415146c0.566864,1.195282 0.205658,2.248047 -0.8526,2.499557c-0.472015,0.112045 -0.847534,-0.291061 -1.190063,-1.277924c-0.610687,-1.755981 -1.324188,-1.671143 -2.654724,0.315781c-1.079803,1.611267 -1.160248,2.149185 -0.293671,1.943527c0.362061,-0.086227 0.550964,0.272934 0.536133,1.022293c-0.038147,0.986862 0.118225,1.121964 0.93457,0.927826c1.02063,-0.241913 1.61499,0.724091 0.793976,1.290558c-0.289978,0.201004 -0.23642,0.466522 0.156372,0.754013c0.727936,0.534897 -0.091705,2.355682 -2.02179,4.485107c-1.415375,1.562683 -0.823364,1.804596 1.591766,0.650497c2.276337,-1.087631 3.467224,-0.498093 2.252045,1.114563c-0.365753,0.487656 -0.297394,1.473709 0.229004,3.23024c0.494263,1.649719 0.61618,3.065216 0.350922,4.072952c-0.27829,1.054688 -0.221039,1.607162 0.175049,1.742798c0.320587,0.109573 0.6409,0.120819 0.712006,0.026642c1.357147,-1.811722 2.622589,-4.501038 2.407166,-5.114731c-0.225281,-0.638977 0.053009,-0.975067 1.4711,-1.77713c3.132233,-1.77301 3.527893,-1.550873 2.522095,1.41687c-0.331848,0.974228 -0.490967,2.38533 -0.358337,3.135513c0.274597,1.538239 -0.646942,6.081284 -1.735107,8.56575c-0.873474,1.996521 -0.877319,2.00174 -1.239349,1.878174c-0.160095,-0.054642 -0.095428,-0.780106 0.140991,-1.61293c0.331848,-1.163422 0.274597,-1.583267 -0.247559,-1.814194c-0.990021,-0.437149 -2.808319,1.698044 -3.194122,3.750854c-0.163788,0.880875 -0.650635,1.866653 -1.078857,2.190659c-0.501678,0.379761 -0.681793,0.993744 -0.507294,1.729095c0.148407,0.627136 0.064667,1.942688 -0.190826,2.923248c-0.441681,1.709015 -0.156403,2.672546 0.724609,2.463318c0.228607,-0.054382 0.984009,-0.914917 1.679657,-1.912781c0.69635,-0.997559 1.371704,-1.777954 1.50061,-1.734009c0.129761,0.044189 -0.182983,1.258423 -0.694,2.698364c-1.1026,3.104218 -1.092712,3.245361 0.198242,2.939178c0.96106,-0.22818 0.963959,-0.166931 0.08374,1.704102c-0.501099,1.067322 -1.353302,2.532776 -1.892303,3.256866c-0.924805,1.241425 -0.794373,2.224976 0.262909,1.974548c0.263489,-0.062042 1.002533,-0.378082 1.644379,-0.702393c1.052765,-0.53186 1.201172,-0.510712 1.519958,0.214203c0.27832,0.634003 0.584625,0.7323 1.44751,0.465973c0.601746,-0.185913 1.111389,-0.264709 1.132385,-0.175751c0.148834,0.627441 -1.176605,3.055054 -2.460724,4.504883c-2.544312,2.87439 -2.953033,3.475739 -2.799805,4.122101c0.179169,0.751556 0.811523,0.633484 2.282776,-0.425323c0.611511,-0.44046 1.251007,-0.753754 1.420837,-0.695801c0.167633,0.057922 0.076355,0.909149 -0.206055,1.891907c-0.424927,1.472321 -0.384979,1.82901 0.228851,2.029449c0.604645,0.197723 0.863434,0.07251 1.392975,-0.673828c0.35849,-0.50415 1.116608,-1.49704 1.685852,-2.206299c0.569061,-0.709259 1.21463,-1.807617 1.434296,-2.440826c0.539001,-1.552765 1.485657,-2.370483 2.213989,-1.912476c0.451019,0.28418 0.648315,0.205933 1.172913,-0.463226c1.259399,-1.608002 1.27243,-2.351593 0.068359,-3.868683c-1.996643,-2.517395 -3.089935,-3.203888 -4.359467,-2.736816c-1.636963,0.602448 -1.797058,0.250977 -0.76239,-1.673859c0.51004,-0.947876 0.814972,-1.960571 0.677673,-2.249695c-0.366302,-0.771881 0.213623,-3.292328 0.891174,-3.880768c0.480804,-0.416534 0.745636,-0.105713 1.468475,1.726624c0.484924,1.229309 0.825134,2.618195 0.755798,3.086639c-0.125732,0.846283 0.038177,0.95282 5.140961,3.606415c1.030823,0.534637 1.248138,0.882538 1.107697,1.771912c-0.16394,1.042603 -0.118195,4.040283 0.137299,9.244263c0.060944,1.249908 -0.12207,2.877686 -0.408722,3.617126c-0.285706,0.739746 -0.442627,1.674713 -0.347229,2.07782c0.095428,0.403351 -0.334991,1.21286 -0.961456,1.799103c-1.009918,0.947601 -1.111389,0.987122 -0.91507,0.356415c0.121918,-0.389923 0.232727,-1.19281 0.251801,-1.783997c0.038177,-0.903687 -0.121918,-1.038513 -0.923859,-0.848206c-0.524994,0.124115 -1.181122,0.457458 -1.458588,0.740021c-0.687836,0.700745 -0.774902,0.144409 -0.213623,-1.370758c0.248077,-0.667786 0.962952,-1.705444 1.590393,-2.305969c1.371002,-1.311981 2.300507,-3.070435 1.791809,-3.390625c-0.648834,-0.408295 -1.660156,0.051361 -2.301453,1.046204c-0.343506,0.531586 -0.794495,0.97229 -1.002502,0.979156c-0.728882,0.022797 -2.203278,1.439117 -3.493439,3.354095c-0.822388,1.219727 -1.075958,1.92514 -0.689758,1.915253c1.046295,-0.026917 0.901062,0.936066 -0.343384,2.274933c-0.655853,0.706238 -1.220398,1.777405 -1.253357,2.380951c-0.060944,1.075836 -0.04187,1.082428 0.915894,0.357513c1.277527,-0.967377 3.191803,-1.420166 3.341187,-0.790527c0.060944,0.265259 -0.19455,1.101929 -0.57019,1.859497c-2.760284,5.550232 -3.089386,7.240875 -1.119202,5.749603c1.84906,-1.399872 4.067719,-1.30127 2.791443,0.12384c-0.36203,0.404724 -0.625519,0.878387 -0.584045,1.052216c0.04187,0.173798 -0.309052,0.672729 -0.774902,1.108765c-0.876343,0.817169 -3.171753,4.257477 -3.084686,4.62323c0.137268,0.573334 1.942139,-0.384155 3.19455,-1.69339c0.779541,-0.814972 1.721497,-1.554138 2.092896,-1.642303c0.369598,-0.088135 1.072815,-0.621643 1.559113,-1.185669c0.667908,-0.774872 1.062103,-0.98053 1.61319,-0.840485c0.816345,0.207031 3.066193,-1.532776 4.172363,-3.225861c0.339386,-0.517883 1.041626,-1.264771 1.563354,-1.659882c0.529663,-0.401184 0.868927,-1.053589 0.768433,-1.477844c-0.129883,-0.541748 0.091156,-0.82431 0.767883,-0.98465c1.368805,-0.324585 1.69696,-3.329926 0.394165,-3.612213c-0.710205,-0.154022 -1.085724,-0.018951 -1.967285,0.713928c-1.004303,0.833099 -1.145294,0.874573 -1.80896,0.530792c-0.396667,-0.205414 -0.953247,-0.212555 -1.237152,-0.015381c-0.285736,0.19577 -0.548218,0.223236 -0.586823,0.06012c-0.038147,-0.162537 0.244263,-0.454987 0.625946,-0.649384c0.383453,-0.194427 0.921509,-1.003082 1.196503,-1.796906c0.274597,-0.793823 0.601898,-1.467682 0.726563,-1.49704c0.12561,-0.030487 1.014587,0.117523 1.977997,0.326477c0.962982,0.208954 2.540192,0.241364 3.504974,0.07193c1.881195,-0.330597 2.137634,-0.015106 1.809113,2.224426c-0.107086,0.731506 0.038147,0.894348 0.661346,0.746338c1.083496,-0.257019 1.167267,0.445923 0.198242,1.684601c-0.440308,0.563721 -0.775299,1.131836 -0.74469,1.262268c0.038177,0.130981 -0.255493,0.585144 -0.635651,1.010223c-1.053741,1.17688 0.179565,1.43335 1.685272,0.350098c0.911224,-0.656006 1.184418,-0.744415 1.263092,-0.410248c0.057251,0.234497 0.754852,0.456909 1.552521,0.493713c0.798767,0.038177 2.005585,0.193573 2.682709,0.347626c1.180328,0.268005 1.216583,0.346527 0.880066,1.893005c-0.46405,2.128601 0.346802,2.45755 1.974274,0.800964c0.82843,-0.843536 0.832703,-0.841064 1.105774,0.641174c0.304932,1.662079 -0.137299,2.928741 -1.449677,4.153961c-1.25473,1.170563 -2.433136,1.050018 -2.748779,-0.281738c-0.144684,-0.604095 -0.466797,-1.049194 -0.718994,-0.989349c-0.259216,0.061249 -0.511566,-0.645813 -0.580353,-1.623901c-0.141113,-1.979218 -0.618622,-2.196686 -2.417877,-1.096954c-1.882965,1.150238 -2.250244,1.130463 -2.312561,-0.125488c-0.038177,-0.624969 -0.19043,-1.104401 -0.354218,-1.065399c-0.51059,0.121094 -2.793365,3.609711 -2.678467,4.093536c0.060974,0.251801 -0.076324,0.501678 -0.305328,0.555756c-0.228455,0.054108 -0.598877,0.542328 -0.824738,1.084625c-0.224731,0.542572 -0.792999,1.276825 -1.262146,1.631866c-1.183044,0.895721 -0.877289,2.063812 0.400757,1.529724c1.341248,-0.560699 1.2789,-0.085663 -0.213623,1.62915c-0.972321,1.117554 -1.130066,1.539063 -0.639099,1.706543c0.35849,0.122467 0.713531,0.480804 0.788483,0.795471c0.148407,0.629364 -4.768219,6.56073 -6.261139,7.552246c-1.322266,0.878418 -3.103394,1.24884 -5.258362,1.093964l-0.010559,-0.001648zm-150.168365,-50.019104c0,-0.079346 -0.640472,-0.741638 -1.380905,-1.472046c-1.582443,-1.560486 -3.791763,-6.219971 -3.903946,-8.233215c-0.12973,-2.331818 0.482178,-2.512482 3.885284,-1.146149c1.665771,0.668915 3.315643,1.436096 3.666565,1.7052c0.350922,0.268829 1.438553,0.665039 2.417328,0.880035l1.779327,0.391296l0.296829,-0.929474c0.362579,-1.125549 0.472839,-1.158203 2.57933,-0.756775l1.66716,0.318268l-0.843811,-2.0737c-0.73494,-1.807053 -0.741379,-2.287582 -0.049286,-3.739868c1.026123,-2.154144 2.622025,-2.762634 4.597687,-1.752975c1.271622,0.649399 1.483734,0.645279 3.677689,-0.072495c1.677856,-0.548889 2.516998,-0.681519 3.001923,-0.474747c3.53627,1.505554 6.007965,2.223602 8.569595,2.488846l3.030762,0.313858l0.312332,-1.218613c0.301636,-1.185394 0.057251,-4.356339 -0.569626,-7.344116c-0.382629,-1.824081 -2.549133,-3.078125 -4.65274,-2.693695c-0.746063,0.136459 -1.540024,0.222687 -1.763397,0.191376c-0.455688,-0.063156 -3.237396,-3.548767 -4.087234,-5.120773c-0.963943,-1.782898 -1.453537,-1.860336 -3.140182,-0.495361c-0.815933,0.66066 -1.988693,1.371567 -2.605423,1.580261c-1.465057,0.495621 -3.18576,-0.371796 -3.696762,-1.864182c-0.878143,-2.563538 -3.857269,-2.239258 -4.441864,0.483551c-0.174911,0.814697 -0.602722,1.92128 -0.950348,2.459198c-0.420258,0.649399 -0.493851,1.93338 -0.217331,3.82666c0.262909,1.799637 0.209915,2.945221 -0.144714,3.110794c-0.309052,0.144165 -1.293442,-0.164474 -2.189423,-0.686462c-0.895844,-0.521729 -1.92485,-0.878418 -2.286896,-0.792465c-1.099319,0.260864 -4.207367,-0.797119 -6.473541,-2.203018c-1.177841,-0.731216 -2.304611,-1.29248 -2.503403,-1.247726c-0.198257,0.045044 -0.694855,0.774887 -1.102615,1.622269c-0.675751,1.405609 -0.651459,1.690903 0.278442,3.259354c0.645004,1.085709 0.873459,1.868561 0.621246,2.12558c-0.251801,0.257004 -1.524231,0.39238 -3.454727,0.367401c-2.449448,-0.030487 -3.615753,-0.297379 -5.880417,-1.339722c-1.554031,-0.715302 -3.074554,-1.295776 -3.378525,-1.290009c-0.305344,0.00769 -1.047134,0.318802 -1.650269,0.695251c-0.982468,0.613159 -1.259399,0.632935 -2.643585,0.189743c-0.850815,-0.272385 -2.410324,-1.36937 -3.465988,-2.438065c-1.056473,-1.068695 -2.440521,-2.189011 -3.076736,-2.489944l-1.156982,-0.546707l-0.812637,0.973129c-0.447311,0.535446 -0.849442,1.369919 -0.894058,1.854294c-0.2323,2.495178 -1.606613,3.39061 -4.045914,2.633011c-2.074768,-0.64418 -2.653748,0.057114 -2.467575,2.991638c0.137299,2.144516 0,2.708252 -0.684128,2.961426c-0.591049,0.216919 -1.084351,0.057938 -1.60936,-0.518982c-0.417099,-0.457184 -1.093811,-0.751541 -1.505157,-0.654068c-0.595291,0.141144 -0.621796,0.398712 -0.129868,1.262558c0.339249,0.597229 0.853546,1.169739 1.142548,1.272995c0.826645,0.294357 1.061691,2.096741 0.452942,3.475433c-0.546432,1.238953 -0.529266,1.26889 1.216553,2.103912c0.974106,0.465973 2.145081,1.349579 2.602539,1.963837c2.331253,3.129456 2.913925,3.736023 4.446533,4.628723c1.75502,1.022278 7.053864,2.44162 7.630508,2.044037c0.186584,-0.128784 -0.068924,-1.695862 -0.570602,-3.481781c-0.695389,-2.48172 -0.768982,-3.390869 -0.312744,-3.856018c0.377411,-0.383057 0.434113,-1.155762 0.156372,-2.086334c-0.600937,-2.014648 0.409958,-4.271744 2.160309,-4.823944c1.056076,-0.333069 1.624329,-0.222137 3.113693,0.607117c1.002518,0.557953 2.069702,1.366608 2.37175,1.796906c0.301498,0.430267 1.903564,1.56131 3.557541,2.513275c2.425705,1.395477 3.061523,1.978973 3.282562,3.012238c0.365891,1.7052 1.422363,2.434479 4.811035,3.317841c1.555405,0.405548 3.555634,1.222748 4.445572,1.816132c0.889801,0.593384 1.930496,1.0047 2.312164,0.914093c0.382095,-0.090607 0.679062,-0.229279 0.659973,-0.30838l-0.001373,0.000275zm130.989136,-71.558533c1.615936,-1.421814 3.380707,-3.17067 3.922485,-3.886246l0.984802,-1.300995l-1.545654,0.366302c-1.207214,0.286392 -1.577637,0.232574 -1.690369,-0.244385c-0.080048,-0.335815 0.316467,-0.894592 0.879639,-1.241409c2.550507,-1.569534 4.268341,-3.338974 4.332031,-4.462585c0.106689,-1.909485 -0.529114,-1.940506 -6.525421,-0.315231l-5.256439,1.424561l2.448486,-2.32959c1.347015,-1.281235 2.419678,-2.451797 2.384399,-2.60144c-0.038177,-0.149384 -0.74234,-0.454727 -1.569824,-0.677963c-1.42099,-0.383041 -1.472595,-0.457458 -0.916016,-1.327072c0.324005,-0.506897 0.741394,-1.548676 0.928101,-2.315598c0.186584,-0.766647 0.515686,-1.618973 0.732056,-1.893829c0.217316,-0.274872 0.205658,-0.688126 -0.038177,-0.918777c-0.4039,-0.408035 -2.316284,0.056564 -6.069885,1.474258c-0.799042,0.302048 -1.120178,0.239166 -1.368256,-0.26799c-0.266785,-0.543961 -0.582275,-0.582397 -1.766296,-0.215012c-1.543732,0.479156 -3.650238,1.712341 -5.062286,2.963348c-0.477936,0.423141 -1.591644,1.173859 -2.475006,1.668396c-0.883331,0.494537 -2.278229,1.352066 -3.098724,1.905914c-2.034821,1.372391 -2.58728,1.189789 -2.80365,-0.92865c-0.099121,-0.978363 -0.504974,-2.108017 -0.896393,-2.511383c-0.610138,-0.625504 -0.555786,-0.964905 0.373718,-2.321365c1.066772,-1.557449 0.91217,-2.549805 -0.350922,-2.250244c-1.390259,0.329788 -7.19104,3.029251 -7.870087,3.662445c-0.397461,0.370972 -0.994568,0.738922 -1.326416,0.817734c-1.034637,0.245468 -3.496185,1.852631 -4.232056,2.763443c-0.599854,0.742752 -0.78891,0.818817 -1.290009,0.519516c-0.324036,-0.192764 -0.901062,-1.090103 -1.285095,-1.994324c-0.384003,-0.903946 -0.97641,-1.842484 -1.317047,-2.08522c-0.339386,-0.242737 -0.518555,-0.606842 -0.396637,-0.809204c0.328125,-0.545059 -1.457092,-0.038177 -2.470337,0.703491c-0.482178,0.352295 -1.843567,1.122787 -3.024719,1.711502c-1.675934,0.835297 -2.468536,1.541534 -3.606964,3.214325c-0.91452,1.343552 -1.814606,2.228271 -2.410339,2.369675c-0.554382,0.131531 -1.20639,0.71228 -1.563354,1.391891c-0.335541,0.641708 -1.310608,1.937485 -2.163208,2.879868c-1.38266,1.527252 -1.50885,1.891632 -1.161621,3.355728l0.389496,1.642319l2.618469,-1.44516c1.440338,-0.794922 2.830994,-1.614304 3.091156,-1.82106c0.259338,-0.206497 1.428406,-0.79274 2.597046,-1.302368c1.16864,-0.509628 2.518799,-1.225479 3.000977,-1.590408c1.184967,-0.897079 4.082153,-1.572021 4.221771,-0.983582c0.057251,0.246307 -0.091705,0.585709 -0.335541,0.753754c-0.248077,0.172165 -0.095428,1.667831 0.350372,3.425751l0.794922,3.120407l2.243805,-0.736176c1.233856,-0.404739 2.649628,-0.869888 3.14621,-1.033539c0.839142,-0.276505 0.960083,-0.042007 1.700104,3.290375c0.438385,1.973465 1.019287,3.95076 1.290558,4.393951c0.449097,0.732864 0.630188,0.753464 2.005035,0.228729c1.567902,-0.598328 7.038361,-3.437836 9.289154,-4.821198c2.666382,-1.638748 3.12384,-1.504196 3.740997,1.099716c0.445374,1.877075 0.724609,2.342773 1.406433,2.34552c1.107269,0.003845 5.31366,-1.743896 7.051544,-2.931213c1.853729,-1.266403 2.062683,-1.269424 2.354431,-0.038162c0.140991,0.58844 0.497009,1.103836 0.793976,1.14502c0.297363,0.041183 0.613983,0.38855 0.704712,0.771866c0.19455,0.822388 1.202576,1.239212 2.34198,0.969025c0.447144,-0.106003 2.135193,-1.356186 3.751129,-2.778275l0.016754,0.000824zm-135.217499,30.753494c1.344101,-1.357834 3.543686,-3.911774 4.887787,-5.675446c1.978531,-2.597046 3.120132,-3.664368 6.001923,-5.611191c1.957123,-1.322128 3.941162,-2.494904 4.40892,-2.605835c1.094086,-0.25975 1.726181,0.394592 1.651779,1.708755c-0.038177,0.572525 0.293121,1.398758 0.725998,1.836441l0.786011,0.795486l0.80098,-0.990707c0.440842,-0.545059 0.831314,-1.392715 0.868103,-1.883942c0.038025,-0.490967 0.533798,-1.431152 1.104385,-2.088791c0.571014,-0.657639 1.371567,-1.964676 1.778778,-2.904587c0.407623,-0.939636 1.735947,-2.806549 2.951675,-4.148468c1.216019,-1.342178 2.814804,-3.285431 3.552475,-4.318436c1.469727,-2.056656 1.487442,-2.067642 3.134964,-1.88147c1.120728,0.126587 6.818283,2.595673 7.381454,3.198395c0.16008,0.169693 1.699142,-1.080505 3.423965,-2.778549c3.075531,-3.027603 3.18631,-3.098999 5.727478,-3.701706c2.141235,-0.507721 2.782135,-0.523911 3.693481,-0.092545c1.061554,0.502228 2.756165,0.425888 2.627258,-0.118347c-0.038177,-0.144699 0.777222,-0.73259 1.803467,-1.305939c1.87326,-1.046173 3.510071,-2.698639 4.711395,-4.756393c0.354614,-0.607666 1.307709,-1.927338 2.117615,-2.932053l1.472473,-1.827377l-2.181335,0.412704c-3.511963,0.664505 -5.119141,1.41275 -6.966278,3.243988c-1.159851,1.149963 -2.176239,1.821335 -3.087036,2.039078c-0.746613,0.178482 -2.737091,0.945129 -4.422913,1.703537c-4.042084,1.818039 -4.18869,1.839462 -5.330856,0.771317c-1.184845,-1.108231 -1.976059,-0.969833 -5.305161,0.926727c-2.562576,1.459717 -4.850998,2.186264 -6.236557,1.979782c-0.694305,-0.103241 -0.738098,-0.242462 -0.301086,-0.961884c0.281998,-0.462677 0.433289,-1.690079 0.339249,-2.728027c-0.167908,-1.883942 -0.171753,-1.886139 -1.283142,-1.317734c-0.611923,0.312744 -2.269333,1.355362 -3.682358,2.316406c-1.412888,0.96106 -3.201965,2.083298 -3.975067,2.493805c-0.773514,0.410233 -1.381302,0.852325 -1.350143,0.982208c0.038177,0.129868 -1.434311,1.131577 -3.25592,2.2258c-1.821747,1.094223 -3.67453,2.253265 -4.117157,2.575623c-0.665054,0.484375 -0.953506,0.510468 -1.662903,0.149658c-0.471878,-0.239716 -0.810165,-0.676865 -0.751541,-0.971222c0.312744,-1.57283 0.038162,-3.637177 -0.4841,-3.515533c-0.93222,0.221313 -9.511154,4.880508 -10.243759,5.56369c-0.377411,0.352844 -0.974091,0.709808 -1.323502,0.792725c-0.350922,0.082657 -2.100464,1.606613 -3.8909,3.385941c-1.790039,1.779327 -3.645157,3.328003 -4.122116,3.441132c-0.477097,0.113129 -1.633652,-0.05629 -2.570953,-0.375641c-2.672836,-0.91217 -3.788483,-0.670822 -5.957306,1.28891c-3.579529,3.235199 -3.079636,2.976532 -6.266769,3.241776l-2.88002,0.239441l-0.232162,-2.32959c-0.129883,-1.281509 -0.425339,-2.356506 -0.661346,-2.389191c-0.759094,-0.105713 -5.038528,2.924362 -6.199356,4.389008c-0.6185,0.780106 -1.376633,1.478378 -1.685135,1.551697c-0.895569,0.21225 -2.500259,-0.93689 -2.744095,-1.9655c-0.121918,-0.518967 -0.428207,-0.895157 -0.678635,-0.835846c-0.251251,0.059311 -1.396698,1.175507 -2.548584,2.480621c-1.728531,1.957809 -2.347992,2.419937 -3.543686,2.643723c-1.317062,0.246582 -1.449692,0.383331 -1.457642,1.507767c0,0.680145 0.259201,2.592102 0.585556,4.248688c0.469543,2.383148 0.8508,3.236008 1.824905,4.083664c0.676712,0.589264 1.462723,1.016251 1.746231,0.948975c0.28241,-0.067001 1.051254,-0.647202 1.706146,-1.289185c1.542358,-1.511887 2.048294,-1.324066 3.677139,1.364151c1.333954,2.200531 2.275925,2.707153 4.191162,2.252975c1.218353,-0.289139 2.401413,-1.682388 2.189285,-2.578094c-0.072632,-0.311935 0.266632,-1.355911 0.754425,-2.320267c0.488632,-0.96434 0.814438,-2.066544 0.723679,-2.449585c-0.121918,-0.506622 0.19455,-0.834747 1.149567,-1.205719c0.722702,-0.28035 1.606201,-0.643082 1.962616,-0.805908c0.358322,-0.163376 1.740601,-0.461029 3.074539,-0.662033c2.770599,-0.417648 4.868713,0.034317 4.638748,0.995926c-0.083755,0.350098 0.209915,1.19281 0.652969,1.872406c0.442627,0.679611 1.048508,1.62117 1.346848,2.092361l0.542725,0.85672l0.82843,-1.718918c0.455673,-0.945129 1.609909,-2.370514 2.564377,-3.167099c0.955002,-0.79657 1.810074,-1.755432 1.898895,-2.130524c0.152679,-0.643631 1.488815,-1.280121 1.65686,-0.789978c0.041885,0.125488 0.428223,1.338882 0.856445,2.696442c0.427673,1.357559 1.191849,3.023758 1.698181,3.702805c0.506485,0.678787 1.081192,1.639847 1.276703,2.135193c0.194534,0.495636 0.421616,1.070343 0.502213,1.277115c0.259216,0.666962 0.906967,0.23175 3.398438,-2.284302l0.000824,0zm274.574402,20.867538c-0.402679,-0.056015 -0.61441,-0.385788 -0.514862,-0.802063c0.171356,-0.717499 2.276337,-1.9655 6.20871,-3.680573c1.170959,-0.510452 3.885681,-1.803482 6.033081,-2.873276c2.147003,-1.070068 4.279022,-2.034424 4.738403,-2.143158c0.458862,-0.108734 1.657288,-0.84491 2.662537,-1.635437c1.442841,-1.134323 2.039917,-1.418243 2.828796,-1.34549c0.81073,0.074692 1.073242,0.43605 1.386414,1.907013l0.386322,1.814468l-3.410919,1.022842c-1.875702,0.562363 -5.114044,1.760925 -7.196777,2.663498c-2.082214,0.902298 -5.125031,2.046494 -6.761047,2.542679c-1.635834,0.495911 -3.248077,1.126907 -3.581696,1.401764c-0.964355,0.794113 -2.039917,1.230698 -2.77951,1.127731l0.000549,0zm-62.394073,4.753387c-0.247681,-0.250427 -0.354218,-1.16124 -0.235992,-2.024261c0.117798,-0.862747 0.243958,-2.536362 0.27829,-3.718735c0.03775,-1.182373 0.398407,-3.641296 0.808502,-5.46402c0.409973,-1.822433 0.650635,-3.714066 0.53421,-4.203369c-0.114502,-0.489319 0.186737,-1.590698 0.674957,-2.447678c0.763611,-1.343552 0.795319,-2.044846 0.228455,-5.088928c-0.487274,-2.616821 -0.826111,-3.531189 -1.310211,-3.532837c-0.802338,-0.002747 -1.404083,-2.26178 -0.877716,-3.293396c0.209503,-0.408875 0.395142,-1.659332 0.415192,-2.779373c0.038147,-1.119492 0.259216,-2.189011 0.529663,-2.376556c0.827881,-0.571152 1.949158,-0.374542 2.000793,0.350922c0.068359,0.982742 1.627472,4.191849 2.162231,4.454071c1.1026,0.540939 2.301056,3.921661 2.309418,6.514313l0,1.805145l1.68158,-1.958633c1.817902,-2.116241 5.496399,-5.405807 8.73996,-7.814758c1.230988,-0.914368 2.839935,-2.711273 4.087646,-4.565018c1.131439,-1.681564 2.578918,-3.550415 3.216522,-4.153122c0.637054,-0.602722 1.634491,-1.84166 2.21579,-2.753021c0.581696,-0.911621 1.312927,-1.664825 1.625702,-1.673874c0.788879,-0.022797 1.333801,1.228226 0.779938,1.791946c-0.25177,0.255646 -0.381104,0.778732 -0.289398,1.162888c0.209381,0.880051 -1.929657,4.670181 -4.258575,7.5495c-0.979187,1.210648 -1.717834,2.463867 -1.641479,2.785141c0.232697,0.973679 -1.287811,2.583038 -2.59375,2.748611c-0.962433,0.121918 -1.457642,0.622772 -2.959503,2.992996c-0.992767,1.565704 -1.735962,3.133591 -1.65274,3.484253c0.136871,0.583221 -0.622223,1.219437 -1.78717,1.495667c-0.255493,0.060684 -0.794922,-0.174911 -1.198822,-0.522812c-0.701447,-0.60437 -0.783417,-0.514023 -1.801727,1.987457c-0.587341,1.441315 -1.164368,3.086914 -1.283142,3.656967c-0.15213,0.733139 -0.636627,1.223007 -1.653564,1.674149c-1.101654,0.487946 -1.82489,1.299347 -3.087463,3.462006c-2.637115,4.515854 -3.354218,6.122467 -3.708984,8.307358c-0.339264,2.088242 -1.139679,2.968567 -1.953278,2.147003l0.004669,0zm40.530334,-10.924179c-0.614807,-0.271576 -0.622223,-0.601349 -0.045593,-1.878189c0.385376,-0.851486 0.847504,-2.174454 1.027649,-2.939728c0.335541,-1.419891 4.557739,-8.238983 6.244934,-10.081741c0.512787,-0.56044 1.596741,-2.015198 2.40799,-3.233002c0.811676,-1.217789 1.784821,-2.564362 2.163757,-2.992172c1.419891,-1.606064 1.470123,-2.608582 0.232147,-4.635574c-0.971191,-1.588776 -1.096008,-2.098129 -0.744659,-3.041885c0.2323,-0.623581 0.373291,-1.339981 0.312347,-1.592331c-0.060974,-0.25235 0.373688,-1.14888 0.962952,-1.992401c1.38092,-1.976486 9.527924,-6.999237 11.115845,-6.8526c1.453003,0.134262 1.354401,0.594208 -0.750153,3.506195c-2.117615,2.930405 -3.054504,5.732285 -2.523041,7.547318c0.4617,1.574203 1.879822,3.349686 3.197418,4.001282c0.584045,0.289139 0.969849,0.677948 0.858215,0.86412c-0.114502,0.185898 0.072083,0.272125 0.40625,0.193039c0.335541,-0.079636 1.321747,0.166672 2.19162,0.547806c1.339447,0.586792 1.909088,0.614792 3.734406,0.181778c1.856598,-0.44017 2.198212,-0.419296 2.477051,0.151016c0.369995,0.755661 -0.585144,1.343002 -4.145996,2.550644c-2.830597,0.959686 -6.465424,1.022018 -9.23233,0.158432c-1.836975,-0.573608 -2.096741,-0.567017 -3.228027,0.079361c-0.716827,0.409958 -1.810089,1.728256 -2.619843,3.159668c-1.394348,2.464981 -2.222382,3.50264 -5.785156,7.24884c-1.056885,1.111252 -2.387939,2.860367 -2.957581,3.88678c-1.621155,2.919968 -3.304504,5.196014 -3.957489,5.350876c-0.328125,0.077713 -0.93222,-0.007675 -1.342712,-0.18808l0,0.000549zm-103.61319,16.292068c-0.102844,-0.472565 0.049835,-1.284515 0.335541,-1.804016c0.734924,-1.331482 0.53476,-1.878464 -0.525848,-1.434998c-0.772125,0.322906 -0.761017,0.182053 0.091583,-1.140091c0.835999,-1.297699 1.083527,-1.470139 1.772339,-1.235367c0.838715,0.286392 2.075317,3.080048 1.826813,4.127319c-0.08017,0.335266 -0.55069,0.705414 -1.046722,0.822937c-0.495758,0.117798 -0.980133,0.454163 -1.075562,0.747986c-0.289948,0.887177 -1.180847,0.833099 -1.378571,-0.084045l0.000427,0.000275zm134.248474,-40.336594c-0.23642,-0.238052 -0.198242,-0.713364 0.08374,-1.056061c0.282135,-0.342682 0.391418,-0.849838 0.240143,-1.126907c-0.15213,-0.281448 0.604645,-1.457504 1.716431,-2.667328c1.741577,-1.896027 2.424347,-2.351852 5.50824,-3.680023c3.170776,-1.365524 3.876892,-1.56131 7.109192,-1.969345c2.022186,-0.255371 4.176636,-0.310287 4.934204,-0.126312c1.30127,0.316055 1.332581,0.375366 0.937439,1.787018c-0.458435,1.638733 -1.02533,2.035522 -6.176971,4.324478c-2.198212,0.976425 -4.078857,1.61293 -5.12326,1.734024c-1.033264,0.119705 -2.775269,0.704315 -4.662506,1.564316c-3.662842,1.66922 -4.024902,1.76532 -4.56897,1.216141l0.002319,0zm-180.923248,42.08931c-3.417908,0.19165 -9.31604,-1.239502 -11.840485,-2.873291c-1.064026,-0.68866 -2.55188,-1.484131 -3.306702,-1.767792c-2.502594,-0.940735 -3.6987,-1.561584 -4.837952,-2.511932c-0.620422,-0.517319 -1.411652,-0.881699 -1.757904,-0.809479c-0.346802,0.071945 -1.197083,-0.137299 -1.890961,-0.465149c-2.500671,-1.182922 -3.111755,-2.18544 -4.050995,-6.647491c-1.003876,-4.769852 -1.008972,-5.08316 -0.110229,-6.116699c0.354065,-0.409409 0.724091,-1.087372 0.816742,-1.506943c0.091736,-0.419571 0.916443,-1.271606 1.830963,-1.89328c0.914093,-0.621658 2.499695,-1.883667 3.523651,-2.804352c1.134583,-1.020096 3.086639,-2.244476 4.997467,-3.134415c1.724823,-0.803177 3.765289,-1.960556 4.534149,-2.571518c0.768829,-0.611221 1.523682,-1.1409 1.677704,-1.177429c0.152679,-0.038162 0.646515,-0.439331 1.093842,-0.894882c0.87674,-0.893219 4.034088,-2.382034 4.819275,-2.273026c0.670685,0.093079 0.578003,1.904266 -0.141022,2.731598c-1.082123,1.247452 -1.83136,3.251663 -1.564178,4.185806c0.201965,0.701843 -0.270874,1.515991 -1.984161,3.432343c-1.235107,1.381989 -2.607208,2.930664 -3.047913,3.441681c-0.440704,0.511002 -1.297577,1.046722 -1.903992,1.190323c-0.606415,0.14389 -1.637787,0.786697 -2.292664,1.42868c-0.867004,0.849304 -1.36087,1.10878 -1.815979,0.953369c-0.703766,-0.240265 -0.476135,-1.645599 0.643219,-3.97438c0.759094,-1.579697 0.274567,-2.577545 -1.094238,-2.252991c-2.819061,0.66835 -6.976013,4.084488 -7.393951,6.075806c-0.243958,1.165344 0.89267,6.487671 1.790436,8.380402c0.480255,1.011032 2.81192,1.934464 4.149567,1.642578c0.339264,-0.074417 0.647339,-0.022797 0.680023,0.11615c0.038177,0.138397 1.352478,0.717224 2.932465,1.286163c3.426849,1.233719 5.223877,2.316971 5.457428,3.289566c0.217316,0.909164 5.177734,2.63768 7.747742,2.700027c2.016571,0.049133 2.734741,-0.237518 1.718781,-0.685944c-0.342957,-0.151001 -1.282196,-1.446243 -2.090698,-2.878769c-1.526031,-2.704681 -6.527771,-7.762299 -7.680634,-7.766968c-1.050842,-0.003845 -3.988098,1.510773 -4.475891,2.308456c-0.560852,0.917114 -2.009155,1.291107 -2.432709,0.627975c-0.59903,-0.938812 0.270874,-3.567993 1.891479,-5.725418c0.97821,-1.30127 3.039551,-2.719788 6.292847,-4.330246c0.902863,-0.447021 2.634277,-1.510498 3.847931,-2.363098c3.669861,-2.579193 5.785553,-2.710175 7.604431,-0.470367c4.00528,4.932419 5.78418,9.109711 5.83252,13.699432c0.038147,3.558105 -0.771606,6.509659 -2.220459,8.096756c-1.065399,1.167267 -3.679047,2.181335 -5.951263,2.308746l0.002319,0zm215.849121,-54.257095c-0.729309,-0.322083 -2.167358,-2.317505 -4.356201,-6.043381c-3.182068,-5.417068 -5.972717,-7.407822 -13.939972,-9.946106c-4.813385,-1.533295 -6.269653,-2.363373 -7.000732,-3.991135c-0.293671,-0.658173 -1.226868,-1.987732 -2.070251,-2.954559c-1.34082,-1.538239 -2.147827,-1.965485 -6.463531,-3.421082c-2.712494,-0.914642 -5.200134,-1.803482 -5.527283,-1.974823c-2.375885,-1.243607 -7.461914,-3.443604 -7.784027,-3.367264c-0.350922,0.082916 -2.253937,-1.096985 -4.906311,-3.039413c-0.487793,-0.357239 -1.360046,-0.828156 -1.938049,-1.046722c-1.214203,-0.458832 -2.207947,-1.964676 -2.040863,-3.094604c0.190826,-1.283142 2.780487,-6.905045 3.735901,-8.106369c0.820038,-1.031342 0.815948,-1.20845 -0.053558,-2.287033c-0.517456,-0.642807 -1.292877,-1.824631 -1.721924,-2.626144c-1.473999,-2.748627 -6.419983,-6.084045 -10.948334,-7.383392c-1.511749,-0.433838 -3.505127,-1.009644 -4.430328,-1.279846c-0.925659,-0.270462 -2.401001,-0.550827 -3.279266,-0.623306c-0.878693,-0.072495 -2.486664,-0.417099 -3.573883,-0.765823c-3.638153,-1.165909 -4.735138,-1.196106 -8.058197,-0.22023c-8.723633,2.560806 -13.773834,4.6474 -17.321655,7.15657c-1.34079,0.948151 -2.762207,1.722488 -3.160065,1.72084c-1.279999,-0.003571 -1.157532,-1.52121 0.247925,-3.064941c2.04364,-2.245575 13.192139,-8.184891 17.144409,-9.133591c1.691742,-0.406128 1.651245,-0.598602 -0.802887,-3.85466c-2.185974,-2.901016 -3.089783,-3.703644 -6.625092,-5.883591c-5.047333,-3.112717 -6.959686,-4.194031 -8.979553,-5.078476c-1.981842,-0.867981 -2.75769,-1.663193 -1.835205,-1.88176c0.240112,-0.056839 0.48587,-0.411057 0.546844,-0.786682c0.190826,-1.163437 1.564301,-1.101929 3.785736,0.169693c1.171387,0.670532 3.726563,1.949005 5.67804,2.841141c1.951904,0.891861 4.145294,2.145355 4.875153,2.785416c0.729736,0.639801 1.708069,1.313354 2.17392,1.496506c0.46582,0.183426 2.202332,1.54538 3.858765,3.026505c1.656311,1.481125 3.534363,2.891953 4.172363,3.135239c0.63855,0.243286 1.420837,0.870438 1.739227,1.394073c0.406799,0.669174 1.043976,0.979736 2.146454,1.046173c0.862488,0.05191 3.087585,0.411072 4.945465,0.797958c1.857971,0.386887 4.311554,0.828979 5.452332,0.982468c1.140778,0.153778 4.041656,1.147507 6.446503,2.208786c5.110596,2.256012 4.496765,1.891907 7.858826,4.657822c3.171326,2.608582 5.344421,6.491241 4.751038,8.489426c-0.190857,0.637863 -0.274719,1.453384 -0.190857,1.811722c0.20993,0.881699 -0.883881,3.652008 -1.730438,4.385712c-0.377411,0.326477 -0.884308,1.366074 -1.128143,2.310104c-0.660919,2.558319 0.633484,4.435394 3.983429,5.778412c1.407959,0.56427 3.593964,1.445694 4.858978,1.958633c1.264893,0.512924 5.478821,2.150284 9.363983,3.638275c3.884857,1.488266 7.213409,2.84198 7.396423,3.008652c0.182861,0.166672 0.837189,0.588165 1.453918,0.937439c0.616608,0.349274 1.044403,0.871002 0.950348,1.160141c-0.095398,0.288864 0.076355,0.559601 0.38208,0.601883c0.30481,0.042297 0.482605,0.293274 0.396515,0.557693c-0.08786,0.26416 1.688568,1.385574 3.943909,2.491333c2.254883,1.106033 5.374084,2.849121 6.931396,3.873596c3.247131,2.136566 5.088379,3.212677 7.081177,4.139679c2.153076,1.00087 5.929443,3.545746 6.056458,4.080917c0.060974,0.262512 0.316467,0.478607 0.564148,0.47998c0.247559,0.001648 0.884705,1.127731 1.414795,2.502869l0.963806,2.500107l-1.867188,1.901794c-2.023193,2.060226 -2.494629,2.301865 -3.568237,1.827652l0.00177,-0.000275zm-169.899414,28.617218c-0.202087,-0.125763 -0.217316,-0.525009 -0.038147,-0.887192c0.408997,-0.831451 -0.847107,-4.158066 -1.5112,-4.000458c-0.285858,0.067825 -0.476685,-0.336365 -0.452942,-0.960236c0.038177,-0.956116 -0.000397,-0.984116 -0.335541,-0.249054c-0.346649,0.76857 -1.647095,1.440765 -1.755005,0.909164c-0.038177,-0.129608 0.42395,-1.603317 1.00058,-3.275558c0.679047,-1.96933 1.342316,-3.150879 1.882172,-3.353531c0.695801,-0.261124 0.820465,-0.141968 0.756348,0.720245c-0.053558,0.709534 0.289825,1.281769 1.097382,1.825729c0.645966,0.43605 1.544678,1.678009 1.996674,2.760422c0.686462,1.643677 0.70871,2.262329 0.137268,3.753616c-0.693054,1.803482 -2.088776,3.189606 -2.776215,2.756851l-0.001373,0zm-90.127502,0.853973c-0.579376,-0.341324 -1.263092,-1.427032 -1.664673,-2.643188c-0.373871,-1.135406 -0.936096,-2.539658 -1.245941,-3.120956c-1.08313,-2.02919 -0.141571,-7.945999 1.59671,-10.0271c0.377563,-0.450592 0.930847,-1.338608 1.232483,-1.973465c0.642273,-1.353165 8.587311,-7.300995 11.29187,-8.45372c0.959686,-0.409134 1.970551,-0.935791 2.245148,-1.170288c0.653381,-0.557404 5.751495,-1.816391 8.129303,-2.008057c1.366882,-0.110107 3.564545,0.402267 8.241455,1.920746c5.962952,1.936386 6.445953,2.173904 7.439667,3.655304c0.584595,0.871262 1.163574,1.992126 1.285889,2.490784c0.122467,0.498642 0.638977,1.070068 1.147797,1.270233c0.947449,0.372894 2.200378,3.076477 1.937897,4.182236c-0.095428,0.397888 -0.646942,0.728485 -1.593567,0.95282c-1.303192,0.309189 -1.474396,0.242188 -1.699707,-0.664505c-0.137299,-0.554382 -0.747833,-1.249908 -1.355225,-1.545639c-1.065796,-0.519257 -1.143097,-0.509369 -2.249817,0.287491c-0.630615,0.453888 -1.703827,0.957214 -2.385223,1.118668c-1.866364,0.442902 -5.930817,2.831268 -7.455048,4.381317c-1.38266,1.406158 -2.950165,1.929794 -3.412842,1.140076c-0.457458,-0.78064 3.511963,-4.717407 6.63501,-6.580475c1.617706,-0.965179 3.276489,-2.2173 3.686035,-2.782669c0.739075,-1.02092 0.733978,-1.033554 -0.809326,-1.906738c-0.854523,-0.483551 -1.608948,-1.112625 -1.676514,-1.398193c-0.27829,-1.171112 -1.677307,-1.401505 -4.626099,-0.76088c-1.563354,0.339661 -3.014954,0.51265 -3.225311,0.384415c-0.834045,-0.507706 -4.744049,-0.594757 -6.617676,-0.147446c-4.165894,0.994553 -10.230316,6.179581 -12.255798,10.479065c-1.432922,3.04216 -1.74295,6.682907 -0.836792,9.838196c0.935089,3.25853 0.331421,4.314316 -1.759705,3.08197zm186.905121,-44.744003c-0.064667,-0.12027 -0.354614,-1.419067 -0.641296,-2.886185l-0.524048,-2.667618l-2.681763,-0.579102c-1.646149,-0.355865 -4.57489,-0.529678 -7.586578,-0.450882c-5.416077,0.141693 -6.781067,-0.079346 -7.03244,-1.139267c-0.228882,-0.95665 0.447296,-1.350143 1.935303,-1.129089c0.67807,0.100494 3.450989,0.129593 6.162964,0.064789c2.711395,-0.065338 5.451782,0.038177 6.089783,0.229019c0.637726,0.191101 1.394928,0.291611 1.682953,0.223511c0.285858,-0.068375 1.593567,-0.082657 2.901855,-0.030487l2.378723,0.091721l0.391846,2.781845c0.324432,2.29335 0.225311,3.009201 -0.567291,4.076797c-0.879639,1.187042 -2.224701,1.945999 -2.509033,1.416321l-0.000977,-0.001373zm-11.329865,1.27655c-0.827606,0.039001 -1.661133,-0.00769 -1.852386,-0.107086c-1.68158,-0.860275 -10.640656,-1.842484 -12.589813,-1.380081c-1.333405,0.31633 -1.863098,-1.111801 -1.371582,-3.69841c0.06839,-0.35614 0.592438,-0.715302 1.284515,-0.879501c0.889801,-0.210617 1.38269,-0.051071 2.057648,0.666977c0.612457,0.651596 2.002136,1.177704 4.480988,1.696121c1.976044,0.413528 4.349182,0.96846 5.273041,1.233444c0.923828,0.264969 2.58728,0.623581 3.69635,0.796844c1.332428,0.208145 1.95752,0.497009 1.842468,0.850952c-0.19455,0.594757 -0.61618,0.717499 -2.821228,0.821014l0,-0.000275zm-35.530518,6.250702c-1.023376,-0.349274 -0.312744,-1.365784 2.845978,-4.068832c4.284088,-3.66684 10.980865,-8.246948 12.343658,-8.442459c1.775604,-0.254822 1.811432,0.845734 0.080017,2.438339c-0.876343,0.805908 -1.771362,1.507477 -1.988678,1.559097c-0.217346,0.051361 -1.441864,0.970123 -2.720337,2.041016c-1.2789,1.071167 -4.051819,2.985031 -6.162018,4.253082c-4.348785,2.613525 -3.902985,2.388367 -4.397247,2.219757l-0.001373,0zm43.218109,-18.561005c-2.091095,-0.682343 -2.386139,-0.933868 -3.041046,-2.592651c-0.66272,-1.678818 -0.810699,-1.802109 -1.726593,-1.43306c-0.551117,0.221863 -2.938629,1.149963 -5.305725,2.062149c-2.367065,0.91217 -5.058563,2.100861 -5.980499,2.641525c-2.981476,1.748566 -4.917053,0.755661 -1.983612,-1.017624c0.752625,-0.454712 2.314484,-1.460526 3.471039,-2.234863c1.949585,-1.30484 6.747986,-3.472427 13.119934,-5.926422c6.217896,-2.394669 7.301819,-3.106674 7.050568,-4.630356c-0.274597,-1.670319 -0.225311,-1.882294 0.533813,-2.268372c1.38266,-0.701843 1.910553,-0.171066 3.152252,3.169556c0.304779,0.817184 0.102844,1.04097 -2.050629,2.293091l-2.387543,1.386932l0.350922,1.572571c0.19455,0.864944 0.224762,2.409225 0.072083,3.431778c-0.1521,1.022293 -0.327576,2.27771 -0.391815,2.789536c-0.171753,1.39299 -2.042267,1.682678 -4.881775,0.755951l-0.001373,0.000259zm-51.758881,12.229309c-0.853546,-0.000549 -1.212433,-0.213638 -1.215179,-0.721619c0,-1.042892 6.628815,-3.719284 13.65097,-5.507126c6.832275,-1.739517 8.437531,-1.77301 7.431305,-0.154861c-0.55249,0.887741 -5.286224,2.639877 -11.796417,4.366211c-3.494263,0.926727 -6.467346,1.759827 -6.606415,1.851532c-0.137299,0.091446 -0.798248,0.166138 -1.464264,0.165863l0,0zm12.384186,-13.406738c-0.095428,-0.400345 0.38208,-0.904755 1.355774,-1.433609c0.826508,-0.448959 2.962799,-2.000916 4.746643,-3.448547c3.78244,-3.069061 4.846863,-3.751953 7.740753,-4.96756c1.174286,-0.493439 2.709625,-1.449539 3.410095,-2.124481c0.701294,-0.674942 2.340576,-1.684036 3.642273,-2.242554c1.810486,-0.776535 2.333588,-1.158478 2.224152,-1.624191c-0.179169,-0.753738 5.022339,-4.055649 10.467682,-6.646927c3.08197,-1.466843 4.734558,-2.026459 9.671234,-3.274734c5.582642,-1.411652 6.072235,-1.48497 7.843994,-1.17276c2.268921,0.399246 3.914124,1.440765 4.203125,2.659653c0.118195,0.491791 0.89035,1.277664 1.71933,1.746658c1.121124,0.634018 1.603729,1.259247 1.883942,2.440796c0.358337,1.515182 0.274567,1.684601 -1.827667,3.672058c-1.212036,1.146133 -2.385193,2.126678 -2.607208,2.179398c-0.221161,0.052719 -0.835022,-0.307251 -1.361816,-0.80014c-0.637573,-0.595856 -1.351654,-0.838867 -2.133942,-0.725739c-0.74469,0.10791 -1.543335,-0.137573 -2.182281,-0.670273c-2.132996,-1.780411 -7.376801,-0.998947 -14.095947,2.100601c-2.846497,1.31308 -5.31601,2.190384 -8.571503,3.044617c-3.836395,1.006638 -5.048859,1.472076 -7.53125,2.891144c-1.627075,0.930023 -3.601898,2.204926 -4.387512,2.832916c-1.350128,1.079117 -5.234039,2.937531 -10.320892,4.938721c-3.160248,1.243057 -3.721497,1.333389 -3.888977,0.624954zm4.077484,-33.919769c-0.114502,-2.084381 0.659973,-3.427399 2.636444,-4.561432c1.3367,-0.766922 1.939392,-0.962158 2.518921,-0.815262c0.91629,0.232849 3.148407,-0.560699 5.868347,-2.086304c2.36377,-1.325714 3.345306,-1.58931 3.885254,-1.043991c0.430023,0.434677 -1.181274,2.490509 -1.876526,2.39386c-0.441254,-0.061234 -3.424103,1.73291 -6.426025,3.865631c-2.175262,1.545654 -5.241852,3.340637 -6.024292,3.52626c-0.301086,0.071671 -0.535583,-0.44072 -0.582123,-1.278763zm-164.635696,16.844009c-0.622345,-0.09198 -0.655853,-0.393204 -0.205795,-1.835068c0.297501,-0.949249 0.929474,-2.369675 1.405609,-3.157471c1.365936,-2.258484 11.071228,-10.13118 13.941895,-11.309708c0.758148,-0.311111 2.744507,-1.539612 4.413452,-2.72995c2.29361,-1.635712 3.428772,-2.232391 4.649017,-2.444641c2.537872,-0.44072 2.421051,0.383865 -0.384949,2.723633c-11.674377,9.733017 -13.533203,11.410477 -13.844971,12.491791c-0.198273,0.688675 -0.97879,1.353165 -2.725983,2.320267c-1.346436,0.745499 -3.224884,1.931717 -4.174255,2.636307c-1.911011,1.418518 -2.012878,1.461639 -3.075394,1.30484l0.001373,0zm-69.216599,14.311493c-0.106537,-0.448669 1.077072,-2.111572 2.838547,-3.989471c1.3367,-1.424835 1.85141,-3.479294 1.362366,-5.436279c-0.394714,-1.579163 -0.148544,-1.912506 2.658417,-3.603409c1.114136,-0.671371 2.495041,-1.607162 3.067551,-2.079453c1.197891,-0.988235 2.657043,-1.428406 3.120132,-0.941284c0.255508,0.26799 0.431381,0.225983 0.881439,-0.208969c0.751129,-0.726273 1.32872,-0.833649 1.462311,-0.271286c0.099121,0.42067 -1.490738,2.079727 -4.783447,4.990341c-0.779144,0.688675 -1.225479,1.474274 -1.161789,2.044586c0.107101,0.961334 -0.270325,2.184891 -1.078705,3.505661c-0.652969,1.064575 -3.337067,3.582809 -3.98262,3.736023c-0.293121,0.069473 -0.970398,0.599976 -1.507477,1.179077c-1.040146,1.121689 -2.716492,1.748032 -2.876724,1.074463zm36.586014,-11.121613c-0.799042,-0.599136 -0.422592,-1.460526 1.87941,-4.304977c1.245941,-1.539337 2.352676,-2.532791 3.001389,-2.693146c0.565506,-0.140045 1.342728,-0.527206 1.727142,-0.860291c0.969437,-0.840225 1.109619,-0.116425 0.339401,1.741165c-0.513489,1.235092 -5.232269,6.285858 -6.055481,6.480804c-0.167633,0.0401 -0.570175,-0.123291 -0.8909,-0.363831l-0.000961,0.000275zm103.843155,-27.125107c-0.27829,-0.398422 -0.186584,-1.311966 0.23642,-2.286758c0.594879,-1.373764 1.164124,-1.895477 3.701019,-3.394989c4.528503,-2.676132 5.51413,-2.043762 2.263306,1.452011c-1.0867,1.168365 -2.474579,2.665146 -3.085266,3.326355c-1.349182,1.4608 -2.491333,1.791946 -3.115479,0.903381zm81.676147,-21.261292c-0.562225,-0.074417 -3.841614,0.40448 -7.287018,1.064026c-6.735474,1.288635 -8.990387,1.467667 -11.663635,0.925354c-0.938812,-0.190277 -2.84845,-0.319061 -4.243195,-0.285828c-1.395325,0.034302 -3.024323,-0.015106 -3.620026,-0.106277c-0.759918,-0.116699 -1.619659,0.043655 -2.879059,0.537918c-1.40918,0.553009 -2.595947,0.722992 -5.518372,0.790253c-2.047729,0.047241 -3.988098,0.023071 -4.312408,-0.050247c-0.324005,-0.074951 -1.520508,-0.101868 -2.658539,-0.05957c-1.137878,0.042557 -2.378601,0.00383 -2.756592,-0.08403c-0.407745,-0.095825 -2.024536,0.244934 -3.97644,0.838028c-6.943054,2.109116 -7.456818,2.216476 -8.158264,1.70163c-0.852173,-0.625778 -0.597504,-0.827606 3.580902,-2.833466c4.988708,-2.395218 8.496155,-3.775574 14.253265,-5.609818c5.371368,-1.711227 6.768463,-1.858688 6.847137,-0.721344c0.038147,0.55603 0.550537,0.485748 6.91272,-0.948151c3.779144,-0.851501 7.476318,-1.547302 8.215942,-1.545929c1.381287,0.003021 2.06311,0.928925 1.148163,1.560211c-0.584045,0.402542 2.344299,1.562134 3.345856,1.324615c0.366302,-0.087051 1.516266,-0.670822 2.552826,-1.29689c2.528015,-1.527527 7.395752,-2.528946 9.845764,-2.02562c1.610718,0.330872 1.718231,0.311646 3.283905,-0.590927c0.889801,-0.513199 1.532196,-1.004166 1.42746,-1.090927c-2.229797,-1.835617 -4.18924,-2.646744 -7.813385,-3.233536c-4.468903,-0.723541 -5.140411,-1.391617 -2.236786,-2.225525c0.938263,-0.269653 2.425293,-0.741394 3.303955,-1.048935l1.59729,-0.558517l-2.347443,-0.4039c-1.291534,-0.221878 -3.01593,-0.249344 -3.832275,-0.060684c-0.816772,0.188904 -3.740021,0.583755 -6.496613,0.877853c-2.756714,0.294357 -5.569183,0.666977 -6.249207,0.82814c-0.679871,0.161469 -2.670471,0.094467 -4.423187,-0.14827l-3.187134,-0.441544l-6.734528,1.852097c-9.514435,2.616272 -9.666565,2.634933 -9.426422,1.154099c0.171753,-1.049194 2.007782,-1.962479 8.40155,-4.175659l5.3797,-1.862244l0,-1.029419c0.002869,-0.566208 -0.118225,-1.110992 -0.266632,-1.210938c-0.148956,-0.099945 -3.114502,0.49234 -6.587891,1.316101c-6.306854,1.495392 -11.092224,3.182465 -15.5271,5.473618c-0.929871,0.48053 -1.843445,0.821564 -2.029602,0.758133c-0.187134,-0.063705 -1.050018,0.038162 -1.919373,0.226532c-2.287994,0.495087 -2.417328,-0.121902 -0.331421,-1.583267c1.000183,-0.700745 1.786743,-1.41275 1.746643,-1.581345c-0.042267,-0.169159 0.944305,-0.955017 2.1875,-1.746643c1.243622,-0.791641 2.224152,-1.578339 2.178986,-1.748306c-0.045563,-0.169693 -1.185394,-0.543961 -2.534149,-0.831177c-2.828674,-0.602722 -4.028625,-0.274582 -6.576233,1.798553c-1.329132,1.081879 -1.869934,1.311966 -3.697174,1.572281c-1.177032,0.16777 -2.393585,0.483551 -2.704132,0.701843c-0.308929,0.218018 -1.34082,0.587891 -2.289795,0.821564c-2.249298,0.553574 -6.672058,3.181091 -7.076111,4.203384c-0.243835,0.622208 -0.874573,0.978912 -2.839935,1.611557c-1.388855,0.446747 -2.770172,0.778168 -3.069336,0.73671c-0.301208,-0.041733 -1.888184,0.777634 -3.53064,1.820786c-2.917755,1.85347 -4.432098,2.329056 -4.639282,1.456696c-0.125641,-0.531601 3.177795,-3.734665 6.089935,-5.903351c1.320343,-0.983856 2.331665,-2.092636 2.619293,-2.873016c0.430542,-1.167542 0.383606,-1.299896 -0.579803,-1.628571c-0.976013,-0.332794 -1.285065,-0.270752 -4.474518,0.901459c-1.883972,0.69252 -4.04483,1.733765 -4.802124,2.313965c-0.756775,0.580475 -2.08316,1.268585 -2.947418,1.52916c-6.985779,2.107742 -8.710205,2.655273 -11.029785,3.504013c-1.452545,0.531326 -2.841827,1.135696 -3.086212,1.342743c-0.243835,0.207031 -2.1474,1.095871 -4.228638,1.974548c-2.08139,0.878967 -4.894379,2.294739 -6.250031,3.146225c-1.356323,0.851501 -2.75946,1.617859 -3.119171,1.702988c-1.258972,0.298477 -0.93689,-1.118942 0.652435,-2.871628c0.881958,-0.972855 1.652191,-2.260956 1.711365,-2.86203l0.106537,-1.092865l-2.06778,0.490433c-1.137482,0.269638 -3.354767,1.025848 -4.926941,1.680466c-3.489166,1.452835 -4.12854,1.48497 -4.133209,0.206757l-0.003723,-0.978348l-2.363922,0.698822c-5.137665,1.518188 -13.075714,4.624054 -15.687561,6.138123c-5.31369,3.080048 -7.24884,4.00293 -8.205643,3.914795c-1.501999,-0.138672 -0.997849,-1.176605 1.2491,-2.569855c1.110977,-0.688934 2.019455,-1.379807 2.018494,-1.534943c-0.000961,-0.155426 -0.002747,-0.410797 0,-0.567856c-0.001373,-0.156509 0.985764,-1.314728 2.193542,-2.572891c2.36377,-2.462753 2.50946,-2.868607 1.154633,-3.212662c-0.70047,-0.177658 -1.406021,-0.022797 -3.494263,0.774612c-1.961792,0.747437 -2.947006,0.981659 -3.9384,0.935791c-1.071854,-0.049973 -1.572571,0.105453 -2.641678,0.819366c-0.725037,0.484375 -2.471283,1.239777 -3.880051,1.678833c-2.708801,0.844345 -6.489319,3.059723 -8.034973,4.708344c-2.009567,2.143982 -3.407211,3.755798 -3.37468,3.892273c0,0.079361 -0.347214,0.665604 -0.815384,1.302933c-1.568848,2.139023 -4.939407,2.751358 -10.056076,1.826813c-1.42511,-0.257278 -2.925583,-0.389084 -3.333755,-0.29216c-0.408188,0.096939 -1.781662,0.781754 -3.052185,1.522049c-1.269684,0.740005 -2.942886,1.591507 -3.717773,1.892181c-0.774475,0.300934 -1.504593,0.705963 -1.622391,0.900635c-0.11821,0.194412 -0.723267,0.474762 -1.346451,0.622498c-1.277512,0.303146 -5.207001,2.633286 -6.340759,3.760193c-0.410507,0.40831 -0.769806,1.101913 -0.797684,1.54126c-0.080032,1.237839 -2.20137,3.633621 -3.617279,4.084488c-0.70459,0.22406 -2.197098,1.333115 -3.408585,2.532516c-1.184982,1.173584 -2.532791,2.242004 -2.994507,2.374634c-2.515091,0.722168 -3.119598,1.016525 -4.582458,2.231018c-3.2323,2.684647 -5.25766,5.046646 -5.323837,6.209518c-0.095413,1.68927 1.382828,4.772598 2.502045,5.216614c0.916016,0.363556 0.866592,0.470642 -0.972183,2.118439c-1.065399,0.954468 -2.214401,1.801834 -2.554199,1.882843c-0.339264,0.081009 -0.592422,0.254272 -0.561264,0.384979c0.064667,0.277328 -3.336502,2.182419 -4.308273,2.413071c-0.362183,0.086212 -0.997437,0.53215 -1.408356,0.990982c-0.872635,0.974243 -2.436005,1.440491 -2.982437,0.88884c-0.537506,-0.543411 0.700882,-2.04567 3.151306,-3.823074c1.84166,-1.335327 2.09758,-1.700256 2.099091,-2.992737c0.001358,-1.401215 -0.441681,-2.667343 -1.789627,-5.115555c-0.77063,-1.399292 0.183014,-2.872192 3.609863,-5.578796c1.35701,-1.071716 3.900101,-3.099808 5.650452,-4.506241c1.749939,-1.406448 3.914108,-2.824966 4.809128,-3.152267c1.130066,-0.412704 2.241455,-1.268875 3.636765,-2.800247c1.105347,-1.21312 2.601166,-2.658005 3.323883,-3.211014c0.751266,-0.574448 1.251984,-1.29332 1.167816,-1.677734c-0.121918,-0.557968 0.835846,-1.216965 5.619293,-3.866745c6.088562,-3.372757 8.981613,-4.826965 13.989807,-7.033279c2.496002,-1.099442 3.474365,-1.383911 5.220596,-1.518463c2.352661,-0.181229 2.033325,0.022797 7.664825,-4.896713c4.113739,-3.593796 11.400726,-7.095886 17.461838,-8.392212c2.308868,-0.493713 4.202698,-1.157944 6.98674,-2.450409c4.025299,-1.868851 7.823547,-2.826614 10.649048,-2.685196c1.552643,0.077972 4.1427,1.481125 4.655487,2.522079c0.198395,0.401459 0.492065,0.774887 0.65448,0.830078c0.164185,0.055466 3.070282,-0.602982 6.462128,-1.462173c5.383423,-1.363876 6.309601,-1.52095 7.28891,-1.235916c0.944305,0.274582 1.850464,0.138947 5.714325,-0.85672c4.984009,-1.284515 9.350525,-1.688705 10.948334,-1.014038c1.227264,0.518143 4.113739,0.026627 5.768799,-0.982758c2.246948,-1.369919 6.315094,-2.849945 9.472046,-3.445786c1.630768,-0.307541 3.312744,-0.77626 3.737671,-1.041245c0.424927,-0.265259 2.234863,-0.929749 4.022552,-1.47673c3.843811,-1.176331 7.956726,-1.444321 10.060333,-0.655716c0.884308,0.331985 1.663879,0.359985 2.369019,0.086227c0.577576,-0.224625 3.090332,-1.215057 5.583435,-2.201096c3.884338,-1.536316 5.318756,-1.945999 10.020386,-2.862289c3.380737,-0.658752 5.945099,-0.996765 6.679626,-0.879791c0.655304,0.104065 1.311432,0.149094 1.458588,0.099396c1.864471,-0.626877 3.248505,-0.646378 5.073822,-0.071671c1.920349,0.604645 2.303802,0.599976 4.78125,-0.056824c1.863098,-0.493713 3.005096,-0.630188 3.704193,-0.442093c0.918762,0.247406 3.289978,0.409134 7.210663,0.491791c0.801392,0.015366 2.052948,0.424789 2.780334,0.906693c1.275726,0.844345 1.399017,0.850388 3.459808,0.170502c2.536072,-0.837479 3.828003,-0.780914 5.152222,0.225998c0.897217,0.682068 1.194183,0.692505 3.584045,0.125748c2.857208,-0.677673 3.878265,-0.535172 4.142151,0.577744c0.274597,1.15271 1.891083,2.138748 3.47998,2.12146c3.763214,-0.040649 6.711182,-0.183151 7.450226,-0.359711c0.447723,-0.107635 1.025879,0.112579 1.292084,0.491226c0.262909,0.37674 0.930298,0.6689 1.479889,0.649414c1.446106,-0.051346 3.926331,1.782623 4.622955,3.418335c0.431915,1.014862 1.106293,1.617035 2.407562,2.150284c0.993195,0.407486 1.85376,0.938004 1.910583,1.178818c0.057251,0.240814 0.584045,0.526382 1.170013,0.634567c2.381104,0.439056 3.592041,4.934052 1.67691,6.226547c-3.396088,2.291687 -6.113678,3.871674 -7.52066,4.372253c-3.871277,1.377319 -9.013062,2.694794 -10.006775,2.563538l0.000549,-0.000549zm-215.798447,42.168106c-0.631149,-0.278717 -0.508682,-0.578293 0.784622,-1.924316c0.842438,-0.876755 1.457794,-1.907562 1.367035,-2.290604c-0.091705,-0.382782 0.201965,-0.877304 0.65242,-1.098892c0.449631,-0.221329 1.512573,-1.023117 2.361588,-1.781525c0.849304,-0.758423 2.169647,-1.769989 2.934784,-2.248047c0.764191,-0.478058 1.598236,-1.335876 1.851959,-1.90564c0.747833,-1.678558 7.312943,-6.226547 13.30101,-9.2146c3.740982,-1.866653 5.45784,-2.574814 5.886459,-2.428452c0.861938,0.293808 0.439346,1.209824 -1.01033,2.18956c-1.412628,0.954742 -5.022339,4.820923 -4.627213,4.95575c0.373718,0.128235 7.53508,-3.567719 8.336884,-4.303055c0.37384,-0.341309 0.798767,-0.649673 0.948563,-0.685104c0.148956,-0.034317 1.415359,-0.838577 2.813004,-1.784531c2.761658,-1.869949 8.339218,-4.101242 9.50882,-3.804413c0.431793,0.109283 1.514359,-0.249054 3.222015,-1.066498c1.413849,-0.677399 3.662308,-1.581345 4.996246,-2.008881c1.333817,-0.427536 4.365936,-1.506378 6.738098,-2.397156c4.41687,-1.658783 12.231079,-3.518555 13.280548,-3.160767c1.013245,0.344894 0.099121,1.239761 -2.143707,2.103333c-3.535706,1.360306 -8.727341,4.199265 -11.131622,6.087067c-2.453156,1.926224 -5.446716,5.088913 -5.978729,6.317154c-0.409958,0.946228 -5.10141,3.754974 -7.039871,4.21463c-0.713928,0.169144 -1.744308,0.587341 -2.290192,0.929214c-0.546021,0.342133 -2.204666,0.959122 -3.685104,1.371002c-7.733337,2.151123 -9.296692,2.601166 -12.038864,3.4664c-2.768661,0.873734 -3.016754,0.899277 -3.473389,0.357788c-0.270325,-0.321274 -0.695251,-0.535172 -0.944717,-0.476135c-0.247681,0.059311 -2.623138,1.122513 -5.275925,2.362823c-2.652374,1.240311 -6.139771,2.642624 -7.749542,3.116013c-2.133545,0.627426 -3.917938,1.4608 -6.57814,3.072083c-2.008331,1.216141 -3.790405,2.24585 -3.960236,2.288406c-0.171753,0.042847 -0.645554,-0.070831 -1.056473,-0.252335l0,-0.000275zm139.184189,-35.621384c-1.567078,-0.534637 -37.062164,7.129654 -38.403503,8.292252c-0.979187,0.848755 -2.274963,0.672745 -2.317657,-0.314407c-0.038177,-0.768845 0.312195,-0.997299 3.466797,-2.297195c3.024719,-1.246078 5.927521,-2.774155 10.731964,-5.649628c0.628662,-0.375916 2.090149,-0.954193 3.248505,-1.284805c2.631927,-0.751266 3.509216,-0.365189 2.3992,1.055527c-2.358276,3.019363 2.25354,0.905045 5.808777,-2.662674c2.305298,-2.31395 4.344238,-3.417526 14.909546,-8.072052c5.194916,-2.288406 6.710205,-2.759323 7.220398,-2.243927c0.309052,0.313034 -0.388123,1.234283 -2.427216,3.204987c-1.573517,1.52121 -2.695068,2.822754 -2.490784,2.892227c0.383057,0.130981 2.04129,-0.55275 5.570953,-2.296921c1.829987,-0.904495 2.144135,-0.981644 2.986023,-0.735352c1.024872,0.30014 1.57077,0.131805 10.785492,-3.326065c6.469696,-2.427628 12.678253,-3.515274 12.9729,-2.272766c0.107086,0.452805 -3.437988,2.599518 -6.083893,3.683868c-0.740845,0.303421 -2.100342,1.098343 -3.021027,1.766144c-1.646973,1.194733 -2.265076,1.412201 -6.839691,2.406204c-1.671692,0.363281 -3.083344,0.966553 -5.212494,2.227173c-1.605774,0.951172 -3.10022,1.910583 -3.319885,2.131622c-0.221466,0.221329 -0.926605,0.527222 -1.569275,0.679611c-0.643219,0.152405 -1.575439,0.530777 -2.072021,0.84024c-0.959686,0.598862 -5.884277,2.132721 -6.343109,1.975937zm-76.195374,16.700119c-2.163208,-0.023071 0.634842,-2.522369 2.916794,-2.603638c0.779984,-0.026642 1.28685,-0.318802 1.880661,-1.078583c0.447296,-0.572235 1.114258,-1.112076 1.482758,-1.199402c0.369598,-0.087311 1.850586,-0.94458 3.29422,-1.9048c2.944275,-1.958908 9.826263,-4.992004 11.640442,-5.130402c0.653931,-0.049973 1.573944,-0.381668 2.045013,-0.736984c0.832672,-0.628799 9.447845,-5.099915 11.819183,-6.134003c0.650635,-0.283661 2.364746,-1.221909 3.809357,-2.085495c1.638184,-0.978363 4.041107,-2.033859 6.381256,-2.80217c2.065033,-0.677673 4.777405,-1.611557 6.027466,-2.075333c2.331818,-0.86467 4.826843,-1.12883 4.969757,-0.526367c0.118225,0.49617 -1.711365,1.639267 -4.730042,2.956482c-1.536316,0.670532 -4.052765,1.944061 -5.591827,2.82962c-1.539185,0.885803 -3.131378,1.692001 -3.538055,1.791397c-0.407349,0.099411 -2.176788,1.551422 -3.931824,3.226944c-2.56723,2.449875 -3.502777,3.120972 -4.780273,3.427673c-1.938446,0.465988 -4.607178,1.933929 -6.439484,3.543015c-1.385437,1.216415 -4.218506,2.338104 -7.793762,3.085526c-0.957336,0.20018 -3.372345,0.910812 -5.366669,1.579163c-4.251556,1.424835 -13.152039,3.847794 -14.094971,3.837357z"/>
  </g>
 </g>
</svg>